<svg xmlns="http://www.w3.org/2000/svg" xmlns:xlink="http://www.w3.org/1999/xlink" fill="none" version="1.1" width="512" height="512" viewBox="0 0 512 512"><defs><linearGradient x1="1.027255892753601" y1="0.5691810846328735" x2="0.01998853124678135" y2="0.41979774832725525" id="master_svg0_11_112"><stop offset="0%" stop-color="#F28C00" stop-opacity="1"/><stop offset="100%" stop-color="#E34913" stop-opacity="1"/></linearGradient></defs><g><g><g><path d="M341.0364616821289,193.728712157959C335.5060616821289,193.19110915795898,329.4635616821289,192.70592515795897,323.9236616821289,193.235717157959C310.76846168212893,194.14810315795899,295.6333616821289,196.99899315795898,286.5854516821289,207.51689315795898C280.0112316821289,215.159493157959,277.6435176821289,226.229593157959,278.4362966821289,236.091093157959C279.8907216821289,254.18359315795897,291.2204616821289,269.517693157959,304.7058616821289,280.868293157959C316.1488616821289,290.49949315795897,329.1299616821289,298.596893157959,341.3204616821289,307.25289315795897C354.5068616821289,316.616893157959,372.1195616821289,331.314893157959,386.8411616821289,337.38289315795896Q388.6441616821289,338.126893157959,390.4871616821289,338.763893157959Q392.3301616821289,339.399893157959,394.2081616821289,339.927893157959Q396.08616168212893,340.45489315795896,397.9911616821289,340.871893157959Q399.8961616821289,341.287893157959,401.8231616821289,341.590893157959Q403.7501616821289,341.894893157959,405.6911616821289,342.08489315795896Q407.63216168212887,342.274893157959,409.58116168212894,342.350893157959Q411.5301616821289,342.42689315795894,413.48016168212894,342.38789315795896Q415.43016168212887,342.34889315795897,417.3751616821289,342.19589315795895C419.3811616821289,342.028893157959,421.3541616821289,341.730893157959,423.3331616821289,341.371893157959C438.00716168212887,338.630893157959,450.8571616821289,331.03389315795897,459.4141616821289,318.636893157959Q459.8091616821289,318.069893157959,460.1901616821289,317.49389315795895Q460.57116168212895,316.917893157959,460.9381616821289,316.332893157959Q461.3041616821289,315.746893157959,461.65616168212887,315.152893157959Q462.0081616821289,314.558893157959,462.3461616821289,313.955893157959Q462.6831616821289,313.35389315795896,463.0061616821289,312.742893157959Q463.3281616821289,312.131893157959,463.6361616821289,311.513893157959Q463.9431616821289,310.894893157959,464.23516168212893,310.269893157959Q464.5271616821289,309.64289315795895,464.8031616821289,309.010893157959Q465.0801616821289,308.37789315795897,465.3411616821289,307.737893157959Q465.6021616821289,307.09889315795897,465.8471616821289,306.452893157959Q466.0921616821289,305.807893157959,466.32116168212895,305.155893157959Q466.5501616821289,304.504893157959,466.7631616821289,303.847893157959Q466.9761616821289,303.19089315795895,467.1731616821289,302.528893157959Q467.3701616821289,301.866893157959,467.5511616821289,301.200893157959Q467.7311616821289,300.532893157959,467.8951616821289,299.862893157959Q468.0591616821289,299.191893157959,468.20616168212894,298.516893157959Q468.35316168212887,297.842893157959,468.4841616821289,297.164893157959Q468.6151616821289,296.48589315795897,468.7291616821289,295.804893157959Q468.8431616821289,295.123893157959,468.9401616821289,294.439893157959Q469.03816168212893,293.756893157959,469.1181616821289,293.07089315795895Q469.1991616821289,292.385093157959,469.2621616821289,291.69739315795897Q469.3251616821289,291.009793157959,469.3721616821289,290.320493157959Q469.4181616821289,289.631793157959,469.4481616821289,288.94129315795897Q469.4771616821289,288.251493157959,469.4901616821289,287.56109315795896Q469.5031616821289,286.87069315795895,469.49916168212894,286.18019315795897Q469.49416168212895,285.48979315795896,469.4731616821289,284.799393157959Q469.45116168212894,284.108993157959,469.41316168212893,283.419693157959Q469.3751616821289,282.72979315795897,469.3191616821289,282.041693157959Q469.26416168212893,281.35349315795895,469.1921616821289,280.66639315795896Q469.11916168212895,279.979893157959,469.03116168212887,279.29499315795897Q468.9411616821289,278.610193157959,468.8351616821289,277.927593157959Q468.7291616821289,277.245593157959,468.6071616821289,276.565693157959C464.73016168212894,256.000493157959,449.4521616821289,240.37409315795898,432.7151616821289,229.03579315795898C413.53116168212887,216.04009315795898,387.3091616821289,203.494393157959,364.8222616821289,197.723413157959C357.0909616821289,195.739173157959,348.9752616821289,194.49999315795898,341.0364616821289,193.728712157959ZM356.5237616821289,242.44689315795898C348.0671616821289,239.194493157959,334.33956168212893,234.77199315795897,325.4177616821289,235.59069315795898C323.2793616821289,235.94429315795898,320.5222616821289,236.431193157959,319.1353616821289,238.27709315795897C318.6521616821289,238.920093157959,318.4596616821289,239.68579315795898,318.58976168212894,240.48499315795897C319.3032616821289,244.85999315795897,324.8107616821289,248.492793157959,328.2362616821289,250.756393157959C338.3201616821289,257.420193157959,348.7449616821289,263.630093157959,358.9193616821289,270.169493157959Q369.1533616821289,276.778593157959,379.4551616821289,283.28239315795895C385.2961616821289,286.928493157959,391.2631616821289,290.831793157959,397.72516168212894,293.279893157959C404.3621616821289,295.794893157959,411.8641616821289,297.011893157959,418.87916168212894,295.523893157959Q419.90816168212893,295.311893157959,420.90316168212894,294.979893157959C423.7671616821289,293.856893157959,426.47516168212894,292.567293157959,427.7661616821289,289.554693157959C428.56216168212893,287.696393157959,428.4711616821289,285.715493157959,427.70116168212894,283.862393157959C426.6201616821289,281.259093157959,424.4381616821289,279.221893157959,422.2711616821289,277.500293157959C415.7751616821289,272.33669315795896,407.82116168212895,268.331893157959,400.5561616821289,264.306493157959C386.2511616821289,256.38129315795896,371.8144616821289,248.327193157959,356.5237616821289,242.44689315795898Z" fill-rule="evenodd" fill="#003F9A" fill-opacity="1"/></g><g><path d="M188.39798474121093,256.762Q183.29498474121092,269.19399999999996,177.83198474121093,281.471C164.99898474121093,281.64099999999996,150.39998474121094,284.089,137.96748474121094,287.31100000000004Q129.43448474121095,289.568,121.09958474121093,292.471C119.49938474121093,293.034,117.91448474121094,293.62,116.33848474121093,294.203C106.34298474121094,297.901,96.70378474121094,301.46799999999996,85.76588474121094,297.946C83.12588474121094,297.095,80.19198474121094,295.807,78.21148474121094,293.828C77.00858474121094,292.625,76.21198474121094,291.10699999999997,76.24928474121094,289.378C76.32068474121094,286.08000000000004,79.23568474121095,283.055,81.55598474121093,280.96799999999996C94.75748474121093,269.09299999999996,127.65708474121094,258.77,145.18698474121095,259.749C152.37698474121095,260.15,159.86098474121093,262.094,166.35098474121094,265.20799999999997C169.04398474121092,266.501,171.59198474121095,268.05899999999997,174.26598474121093,269.374C177.11298474121094,264.334,179.42698474121093,258.95799999999997,181.87898474121093,253.715C184.60898474121095,247.877,187.47398474121093,242.062,189.86198474121093,236.0754C176.76798474121094,223.73489999999998,156.74598474121092,218.70350000000002,139.16528474121094,219.2182C112.57718474121094,219.9973,77.18378474121093,229.9632,58.596484741210936,249.816C48.015424741210936,261.117,41.96338074121094,275.926,42.53745804121094,291.48C43.04458174121094,305.225,48.82381474121094,318.93899999999996,59.03378474121094,328.28Q59.49298474121093,328.7,59.962684741210936,329.108Q60.43248474121094,329.51599999999996,60.911684741210934,329.913Q61.39148474121094,330.31,61.88078474121094,330.69399999999996Q62.36998474121094,331.079,62.86828474121094,331.451Q63.36698474121094,331.824,63.87468474121094,332.18399999999997Q64.38238474121094,332.544,64.89838474121093,332.89099999999996Q65.41498474121093,333.238,65.93998474121094,333.573Q66.46498474121094,333.90700000000004,66.99778474121094,334.22900000000004Q67.53058474121093,334.55,68.07168474121093,334.858Q68.61228474121094,335.166,69.16018474121094,335.461Q69.70858474121094,335.755,70.26428474121093,336.036Q70.81938474121094,336.317,71.38168474121093,336.584Q71.94348474121094,336.851,72.51198474121094,337.10400000000004Q73.08048474121094,337.35699999999997,73.65568474121093,337.596Q74.23028474121094,337.83500000000004,74.81048474121093,338.06Q75.39068474121095,338.28499999999997,75.97648474121094,338.495Q76.56228474121093,338.70500000000004,77.15308474121093,338.9Q77.74388474121093,339.096,78.33978474121093,339.277Q78.93498474121094,339.45799999999997,79.53478474121093,339.624Q80.13448474121094,339.791,80.73818474121094,339.942Q81.34238474121094,340.09299999999996,81.94928474121093,340.23Q82.55688474121094,340.366,83.16718474121095,340.488Q83.77758474121094,340.60900000000004,84.39068474121095,340.71500000000003Q85.00438474121094,340.821,85.61968474121093,340.91200000000003Q86.23558474121094,341.003,86.85318474121094,341.079Q87.47138474121094,341.154,88.09058474121093,341.21500000000003Q88.70988474121094,341.275,89.33078474121095,341.32Q89.95178474121093,341.365,90.57328474121094,341.394Q91.19478474121094,341.424,91.81738474121093,341.438Q92.43938474121094,341.453,93.06198474121094,341.452Q93.68408474121094,341.451,94.30668474121094,341.43399999999997Q94.92868474121093,341.41700000000003,95.55018474121093,341.385C109.67438474121094,340.68600000000004,120.96728474121093,333.433,133.49538474121096,327.905C141.79298474121094,324.243,151.21198474121093,321.48400000000004,160.31498474121094,321.02099999999996Q156.67098474121093,329.781,152.84198474121092,338.46299999999997C151.21398474121094,342.201,149.43698474121095,345.94,148.22698474121094,349.842C154.25198474121095,360.086,166.89798474121093,368.082,177.47498474121093,373.00800000000004C179.71198474121093,374.05,182.07298474121095,375.25,184.46698474121095,375.85400000000004C185.08598474121095,376.009,185.59698474121095,376.034,186.22498474121093,375.96000000000004C189.31898474121093,372.321,190.93698474121095,367.023,192.80398474121094,362.65700000000004L199.41898474121095,347.15999999999997C203.50198474121095,337.578,207.59498474121094,327.96799999999996,212.20998474121095,318.625L280.80798474121093,318.613Q289.41298474121095,338.507,298.53098474121094,358.171C300.76698474121093,362.999,304.02098474121095,371.735,307.4069847412109,375.6C309.80998474121094,376.481,314.6669847412109,374.201,317.33898474121094,372.946C317.6019847412109,372.823,317.84298474121096,372.709,318.05998474121094,372.61C326.5729847412109,368.68600000000004,341.73698474121096,359.299,346.10498474121096,351.017C343.7769847412109,344.44399999999996,340.77898474121093,338.05600000000004,338.1329847412109,331.602C336.90598474121094,328.608,333.65998474121096,319.308,331.99198474121096,317.106C331.1809847412109,314.709,329.92798474121093,311.244,328.34998474121096,309.284C325.87698474121095,306.214,319.65598474121094,302.53,316.28098474121094,300.01099999999997C310.9619847412109,296.04200000000003,305.64698474121093,291.798,300.89698474121093,287.15700000000004C286.20898474121094,272.812,273.7769847412109,253.416,273.5299847412109,232.39190000000002C273.74398474121097,227.17419999999998,274.2889847412109,222.22140000000002,275.555984741211,217.13920000000002C271.2409847412109,207.8509,267.34998474121096,198.1327,263.7899847412109,188.5249C261.7479847412109,183.0149,259.94498474121093,177.3996,257.70698474121093,171.9644C253.84998474121093,162.59969999999998,249.10998474121095,153.7492,244.27498474121094,144.86975C242.96798474121093,142.46891,241.26398474121095,138.08494,239.01898474121094,136.5C238.15498474121094,136.5217506,237.72898474121095,136.815656,237.13298474121095,137.440261C234.76698474121093,139.91973,233.01998474121095,143.80011,231.36698474121093,146.7843C227.76698474121093,153.2836,224.23698474121093,160.0533,221.30798474121093,166.8799C217.98198474121094,174.6307,215.29598474121093,182.66129999999998,212.54598474121093,190.6296Q207.06698474121094,206.5995,201.30698474121093,222.4701Q195.02898474121093,239.683,188.39798474121093,256.762ZM263.08398474121094,279.007C261.35998474121095,274.28,246.57198474121094,238.834,245.02298474121093,237.599C241.53998474121093,244.358,238.76398474121095,251.446,235.84198474121095,258.459Q231.46798474121093,268.709,227.22898474121095,279.01599999999996L245.53698474121094,278.994L263.08398474121094,279.007Z" fill-rule="evenodd" fill="url(#master_svg0_11_112)" fill-opacity="1"/></g></g></g></svg>