<svg width="512" height="512" viewBox="0 0 512 512" fill="none" xmlns="http://www.w3.org/2000/svg">
<mask id="mask0_1299_174" style="mask-type:alpha" maskUnits="userSpaceOnUse" x="0" y="0" width="512" height="512">
<rect width="512" height="512" rx="256" fill="white"/>
</mask>
<g mask="url(#mask0_1299_174)">
<rect width="512" height="512" fill="url(#paint0_linear_1299_174)"/>
<path d="M513.626 361.223C511.596 358.105 510.291 354.571 508.392 351.374C503.176 342.596 493.275 338.08 483.611 336.055C477.911 334.86 470.002 334.136 464.448 336.326C462.077 337.26 459.848 338.769 457.731 340.166C456.52 340.965 455.268 342 453.887 342.463C453.047 342.001 452.717 341.714 452.387 340.786C450.618 335.813 452.929 327.93 455.361 323.478C461.188 312.807 472.105 304.252 483.767 300.924C496.832 297.195 511.202 300.098 522.859 306.695C523.845 307.252 524.82 307.827 525.791 308.407C524.593 307.341 523.29 306.402 522.656 304.891L522.686 303.924C523.513 303.183 524.154 303.069 525.263 303.151C534.187 303.805 543.363 311.625 548.704 318.266C553.408 324.115 557.26 331.489 559.543 338.613C560.294 340.951 560.51 343.731 561.604 345.911C561.972 345.385 561.968 345.277 562.093 344.678C562.269 343.828 562.508 343.468 563.072 342.826C563.925 342.448 563.944 342.462 564.854 342.688C569.276 346.988 572.494 368.135 572.612 374.586C572.869 388.722 568.991 401.664 560.04 412.645C561.496 411.96 563.527 410.847 565.163 411.617C565.842 411.937 566.088 412.479 566.227 413.181C566.857 416.357 562.85 421.21 560.865 423.448C556.234 428.668 546.688 436.342 539.482 437.028C539.4 435.79 539.294 434.852 538.801 433.706C536.175 434.403 533.546 434.868 530.865 435.306C531.174 433.681 536.344 429.026 537.635 426.928C541.192 421.144 543.751 414.41 546.25 408.107L546.606 407.576C546.97 407.478 546.978 407.493 547.372 407.286C553.763 403.946 559.575 389.21 561.319 382.686C562.662 377.664 566.129 360.313 563.861 356.43C562.541 362.55 561.007 368.229 558.824 374.1C558.532 376.366 557.199 378.528 556.15 380.524C555.934 376.19 556.269 371.835 556.108 367.492C555.456 349.839 553.025 337.809 542.645 323.072C540.587 320.149 538.356 316.635 535.733 314.201L534.967 314.362C536.727 317.132 541.65 324.222 541.434 327.217L541.16 327.433L540.866 327.228C539.514 324.507 536.946 322.358 534.762 320.317C528.935 314.849 522.45 310.33 514.869 307.718L514.662 308.362C512.114 308.843 506.869 307.285 504.012 307.013C499.379 306.57 494.513 306.634 489.893 307.237C487.261 307.581 484.518 308.05 481.965 308.794C478.958 309.669 471.682 313.499 468.993 313.146C463.331 316.355 458.644 324.04 456.574 330.024L457.052 330.378C459.341 329.138 461.66 327.601 464.104 326.71C471.832 323.889 481.464 325.049 489.164 327.353C497.121 329.733 507.395 334.602 511.616 342.213C513.404 345.436 513.891 349.268 514.955 352.762L515.647 351.309C516.436 353.259 516.734 355.39 517.14 357.447L515.816 357.384L514.624 353.276C514.331 353.938 514.054 354.563 513.845 355.259C514.105 357.143 513.939 359.347 513.626 361.223Z" fill="#A47360"/>
<path d="M468.993 313.146C471.182 310.978 474.284 309.209 477.054 307.889C489.352 302.029 502.362 303.207 514.869 307.718L514.662 308.362C512.114 308.843 506.868 307.285 504.012 307.013C499.379 306.57 494.513 306.634 489.893 307.237C487.261 307.581 484.518 308.05 481.965 308.794C478.958 309.669 471.682 313.499 468.993 313.146Z" fill="#FEFEFD"/>
<path d="M456.574 330.024L457.052 330.378C459.341 329.138 461.66 327.601 464.104 326.71C471.832 323.89 481.464 325.049 489.164 327.353C497.121 329.733 507.395 334.602 511.616 342.213C513.404 345.436 513.891 349.268 514.955 352.762L515.647 351.309C516.436 353.259 516.734 355.39 517.14 357.447L515.816 357.384L514.624 353.276C514.331 353.938 514.054 354.563 513.845 355.259C512.47 350.908 511.454 347.309 508.377 343.743C500.825 334.991 487.878 330.779 476.665 330.019C468.262 329.449 461.796 331.097 455.409 336.717C455.658 334.456 455.842 332.19 456.574 330.024Z" fill="#DBB49F"/>
<path d="M468.993 313.146C471.682 313.499 478.958 309.669 481.965 308.794C484.518 308.05 487.261 307.581 489.893 307.237C494.513 306.634 499.379 306.571 504.012 307.013C506.869 307.286 512.114 308.843 514.662 308.363L514.869 307.718C522.45 310.33 528.935 314.85 534.762 320.317C536.946 322.358 539.514 324.507 540.866 327.228L541.16 327.434L541.434 327.217C541.65 324.222 536.727 317.132 534.967 314.363L535.733 314.201C538.356 316.635 540.587 320.149 542.645 323.072C553.025 337.809 555.456 349.839 556.108 367.492C556.269 371.835 555.934 376.19 556.15 380.524C557.199 378.528 558.532 376.366 558.824 374.1C561.007 368.229 562.541 362.55 563.861 356.43C566.129 360.314 562.662 377.664 561.319 382.686C559.575 389.21 553.763 403.946 547.372 407.287C546.978 407.493 546.97 407.478 546.606 407.577L546.25 408.108C543.039 408.823 539.04 411.911 536.141 413.678C537.222 411.21 537.747 408.8 538.207 406.163L524.058 415.147C526.042 410.799 528.915 407.277 531.967 403.652C529.315 405.391 526.864 407.55 524.354 409.495C528.019 398.659 529.192 387.693 527.141 376.379C526.193 371.155 523.387 361.361 518.636 358.348C517.936 357.904 518.257 357.984 517.449 358.175L517.14 357.447C516.734 355.39 516.436 353.259 515.647 351.309L514.955 352.762C513.891 349.268 513.404 345.436 511.616 342.213C507.395 334.602 497.121 329.734 489.164 327.353C481.464 325.049 471.832 323.89 464.104 326.71C461.66 327.601 459.341 329.138 457.052 330.379L456.574 330.024C458.644 324.04 463.331 316.355 468.993 313.146Z" fill="#E2CEBE"/>
<path d="M514.624 353.276L515.816 357.384L517.14 357.447L517.449 358.175C518.257 357.984 517.936 357.904 518.636 358.348C523.387 361.361 526.193 371.155 527.141 376.379C529.192 387.693 528.019 398.658 524.354 409.495C526.864 407.55 529.315 405.391 531.967 403.652C528.915 407.277 526.042 410.799 524.058 415.147L538.207 406.163C537.747 408.799 537.222 411.21 536.141 413.678C539.04 411.911 543.038 408.822 546.25 408.107C543.751 414.41 541.191 421.144 537.635 426.928C536.344 429.026 531.174 433.681 530.865 435.306C533.546 434.868 536.175 434.403 538.801 433.706C539.294 434.852 539.4 435.79 539.482 437.028C538.073 437.331 536.664 437.613 535.281 438.02C536.757 438.259 538.289 438.364 539.593 439.138C540.083 439.831 540.21 439.952 540.004 440.844C539.441 443.27 535.726 445.083 533.63 446.018C526.307 449.284 517.155 450.817 509.176 450.826C512.261 455.31 514.936 459.788 516.635 464.995C521.606 480.229 519.647 502.939 516.726 518.631C514.786 529.049 511.263 540.065 512.574 550.751C513.264 556.372 515.826 561.149 517.351 566.502C518.869 571.833 518.613 577.51 518.582 582.995C517.267 584.157 515.98 585.441 514.476 586.353C514.425 581.457 514.654 576.304 513.427 571.533C511.608 564.47 507.818 558.187 507.131 550.777C505.73 535.674 511.165 520.544 512.352 505.57L512.383 505.143C512.168 504.829 512.141 504.827 512 504.403C511.26 502.168 511.995 495.059 511.994 492.353C511.991 486.671 512.04 480.688 511.338 475.053C511.062 472.836 509.39 466.59 510.296 464.812C509.087 459.804 505.404 454.355 502.201 450.383C494.615 440.977 484.067 434.616 472.864 430.381C469.98 429.292 466.772 428.102 463.693 427.783C463.287 428.02 463.266 428.07 462.727 428.165C462.454 428.213 447.214 426.717 444.88 426.586C438.61 426.237 432.341 426.753 426.079 427.019C418.707 427.332 411.329 427.499 403.969 428.065C399.842 428.111 395.699 428.148 391.575 427.98C379.178 427.475 368.838 425.536 360.174 416.165L361.237 415.722C360.764 414.607 360.03 413.515 359.434 412.454C361.008 412.246 362.563 411.947 364.137 412.25C393.724 431.378 439.584 409.819 471.86 426.41C480.651 423.046 487.979 418.798 494.685 412.085C509 397.754 513.717 381.016 513.626 361.223C513.939 359.347 514.105 357.143 513.845 355.259C514.054 354.563 514.331 353.938 514.624 353.276Z" fill="#542F11"/>
<path d="M510.296 464.812C514.197 477.773 513.795 491.81 512.383 505.143C512.168 504.829 512.141 504.827 512 504.403C511.26 502.168 511.995 495.059 511.994 492.353C511.991 486.671 512.04 480.688 511.338 475.053C511.062 472.836 509.39 466.59 510.296 464.812Z" fill="#F0CCAA"/>
<path d="M361.237 415.722C373.623 427.272 394.084 426.649 410.082 426.101C427.807 425.494 446.285 423.135 463.693 427.783C463.287 428.02 463.266 428.07 462.727 428.165C462.454 428.213 447.214 426.717 444.88 426.586C438.61 426.237 432.341 426.753 426.079 427.019C418.707 427.332 411.329 427.499 403.969 428.065C399.842 428.111 395.699 428.148 391.575 427.98C379.178 427.475 368.838 425.536 360.174 416.165L361.237 415.722Z" fill="#F0CCAA"/>
<path d="M517.449 358.175C518.257 357.984 517.936 357.904 518.636 358.348C523.387 361.36 526.193 371.155 527.141 376.379C529.192 387.693 528.019 398.658 524.354 409.495C526.864 407.55 529.315 405.391 531.967 403.651C528.915 407.277 526.042 410.799 524.058 415.147L538.207 406.163C537.747 408.799 537.222 411.21 536.141 413.678C539.04 411.911 543.038 408.822 546.25 408.107C543.751 414.41 541.191 421.144 537.635 426.928C536.344 429.026 531.174 433.681 530.865 435.306C528.421 436.38 524.004 436.197 521.274 436.373C526.186 437.583 531.034 439.343 535.838 440.934C524.699 444.693 516.46 446.061 504.705 445.208C496.429 438.675 486.494 430.982 476.146 428.398C477.236 427.903 478.25 427.442 479.422 427.18C480.596 426.637 481.751 426.061 482.894 425.456C496.324 418.341 507.404 405.898 512.707 391.602C513.979 388.174 514.7 384.497 515.765 380.995C516.459 376.888 516.865 372.751 516.96 368.587L517.633 368.065C517.791 366.628 517.891 365.197 517.967 363.753C517.97 362.712 517.849 361.678 517.759 360.641L517.449 358.175Z" fill="#99592F"/>
<path d="M515.765 380.995C516.106 380.313 516.217 379.882 516.455 379.205C516.504 379.063 516.911 378.441 517.001 378.3C516.709 379.87 515.998 382.131 516.455 383.684C514.792 396.287 505.425 412.061 495.359 419.753C492.365 422.041 483.399 427.551 479.708 427.233C479.612 427.225 479.517 427.197 479.422 427.18C480.596 426.637 481.751 426.061 482.894 425.456C496.324 418.341 507.404 405.898 512.707 391.602C513.979 388.174 514.7 384.497 515.765 380.995Z" fill="#DD8F45"/>
<path d="M189.325 129.492C183.534 130.709 169.224 134.912 164.378 131.773C163.044 130.908 162.211 129.601 161.935 128.039C160.86 121.935 165.538 113.696 169.054 109.029C177.038 98.437 189.265 89.0546 202.692 87.2727C218.438 85.1828 235.982 92.606 248.247 102.04C264.629 114.64 278.489 137.83 284.302 157.779C291.925 158.746 299.065 160.384 306.395 162.638C304.216 160.708 299.523 157.19 299.359 154.152C299.31 153.234 299.652 153.042 300.262 152.477C304.99 150.992 313.775 155.401 317.915 157.585C324.879 161.26 331.093 166.684 335.576 173.167C335.637 170.203 335.326 166.038 337.43 163.695C338.253 163.446 338.429 163.384 339.246 163.82C343.142 165.897 348.384 179.583 349.825 183.819C357.318 175.158 364.038 165.612 372.224 157.591C385.56 144.523 405.217 140.752 423.224 139.455C433.827 138.691 459.116 138.865 467.069 145.547C470.601 148.515 471.356 153.624 471.638 157.984C472.863 176.961 465.83 196.968 460.628 214.946C457.68 225.131 455.038 235.529 450.609 245.192C452.795 251.503 451.14 257.906 448.296 263.749C444.227 272.11 437.568 278.577 428.689 281.552C424.462 282.969 419.981 283.735 415.536 284.001C417.3 287.541 420.884 293.492 419.856 297.494C419.631 298.37 418.815 299.241 418.264 299.943C418.584 304.414 424.094 311.583 420.066 315.761C419.687 316.154 419.506 316.034 419.005 316.044C416.782 314.995 415.075 313.095 413.093 311.66C410.707 309.932 407.115 308.792 404.331 307.817C410.36 322.044 416.373 337.069 416.765 352.733C416.806 354.389 416.989 357.76 416.238 359.207C416.015 359.637 415.974 359.639 415.676 359.93C414.814 360.017 414.467 359.92 413.761 359.391C411.301 357.548 408.928 353.87 407.113 351.359C406.626 350.4 406.37 349.715 406.269 348.64C404.423 344.579 396.386 336.222 392.713 333.419C394.96 336.634 396.914 339.982 398.646 343.502C398.635 345.929 400.641 349.508 401.487 351.846C405.082 361.769 406.413 371.099 405.154 381.598C404.862 384.01 404.226 387.741 402.648 389.635C401.171 385.219 398.713 378.609 395.318 375.377C395.343 375.498 395.361 375.619 395.393 375.737C396.774 380.822 399.894 382.97 396.366 389.339C394.087 393.456 389.223 395.96 384.806 397.141C379.408 398.584 373.89 398.372 368.442 397.369C375.912 400.277 382.039 401.316 389.909 399.738C387.232 401.842 384.607 403.522 381.429 404.783C369.717 409.436 352.09 409.852 339.563 408.323C338.467 408.189 337.375 408.031 336.284 407.865C341.469 410.904 346.803 412.844 352.595 414.395C339.003 414.967 330.531 411.593 317.728 408.575C322.575 411.108 327.381 413.682 332.154 416.353C322.765 418.236 310.386 417.196 300.757 416.843C285.801 416.293 270.708 415.669 255.813 414.175C261.06 411.81 266.229 410.104 271.777 408.594C250.981 410.109 234.864 420.389 213.535 413.061C208.644 411.38 203.82 408.975 199.879 405.586C194.178 400.682 191.085 393.976 190.033 386.621C189.877 387.685 189.496 388.626 189.116 389.623L188.857 389.482C188.295 386.339 188.558 382.865 188.542 379.671C188.635 373.935 191.352 368.549 191.166 362.897C190.791 361.123 190.44 357.626 189.036 356.41C188.119 355.615 187.403 355.794 186.268 355.772C184.669 355.733 183.039 355.544 181.605 354.802L181.571 354.201C182.18 353.826 182.694 353.696 183.392 353.546C185.328 353.239 187.219 352.784 189.124 352.33C186.321 346.259 184.179 340.381 182.751 333.845C173.682 325.211 169.759 314.932 166.413 303.113C166.012 301.585 165.962 299.772 165.7 298.198C165.381 296.028 165.272 293.992 166.591 292.126C169.693 287.734 178.15 287.071 183.05 286.143C179.747 281.847 176.487 277.161 172.633 273.347C164.072 264.877 152.138 265.002 140.912 265.119L140.151 264.949C140.206 264.843 140.242 264.725 140.317 264.632C140.997 263.781 141.958 263.823 142.959 263.636L142.913 262.464C141.03 262.717 139.121 263.057 137.221 263.128C137.149 263.114 137.078 263.09 137.005 263.087C136.083 263.058 135.405 263.084 134.479 262.877L134.182 262.366L134.52 261.804C146.631 260.009 160.022 256.077 167.619 245.836C171.687 240.353 175.186 233.126 176.919 226.522C178.031 222.288 178.815 217.998 180.221 213.839C182.117 208.227 184.791 203.177 187.797 198.104C184.097 193.26 183.039 184.687 183.803 178.786C184.213 175.621 185.214 172.018 187.811 169.967C187.967 166.345 188.259 162.778 188.857 159.199C190.485 149.465 193.698 138.973 189.325 129.492Z" fill="#DD8F45"/>
<path d="M395.714 240.882C398.534 243.572 398.737 247.36 400.942 250.18L401.314 249.952C402.086 250.46 402.557 250.625 403.474 250.739L403.417 251.16C403.209 251.651 403.006 252.169 402.736 252.629C402.306 253.36 402.014 253.707 401.209 253.959C400.634 253.627 400.377 253.384 400.076 252.801C399.982 252.619 399.893 252.435 399.801 252.252L399.767 252.331C399.475 251.693 399.533 251.953 399.454 251.272L399.241 249.278C398.998 246.971 397.806 244.644 396.435 242.791L396.004 242.807C395.86 243.648 395.728 244.445 395.43 245.25L395.192 244.427C395.263 243.201 395.453 242.081 395.714 240.882Z" fill="#D2823C"/>
<path d="M401.314 249.952C402.086 250.46 402.557 250.625 403.474 250.739L403.417 251.16C402.67 252.074 401.951 253.123 400.738 253.316C400.367 252.282 400.725 251.235 400.942 250.18L401.314 249.952Z" fill="#BB6F36"/>
<path d="M437.676 260.972C437.342 261.471 437.044 261.978 436.743 262.498L437.157 262.801C441.986 261.324 445.948 255.844 448.505 251.784C447.851 254.664 447.309 257.793 445.749 260.344L445.511 259.812C445.851 258.952 447.045 256.545 446.756 255.738L446.031 255.644L446.349 256.234C444.396 259.39 438.8 267.535 435.173 268.745L434.558 268.485C434.38 267.574 434.384 267.484 434.955 266.672C435.585 265.776 436.261 265.512 436.413 264.384L436.036 264.087C435.513 263.666 435.713 263.847 435.269 263.374C435.926 262.162 436.416 261.616 437.676 260.972Z" fill="#D2823C"/>
<path d="M466.267 173.488C465.525 181.217 462.933 189.045 460.88 196.509L452.89 225.628C451.47 221.234 460.486 194.12 462.322 187.632C463.645 182.954 464.715 178.223 465.94 173.521L466.267 173.488Z" fill="#ECB37E"/>
<path d="M267.14 160.465C285.075 161.365 300.785 163.265 317.098 171.536C317.716 172.462 319.454 173.063 319.772 174.067C318.261 173.517 316.948 172.525 315.512 171.803C313.242 170.662 310.884 169.737 308.481 168.922C296.381 164.815 283.988 163.519 271.391 162.079C267.299 161.611 263.714 160.887 259.547 161.035L259.248 160.701C261.696 160.232 264.629 160.499 267.14 160.465Z" fill="#F0CCAA"/>
<path d="M412.174 356.064C413.118 346.478 408.915 334.891 405.05 326.209C403.011 321.63 400.202 316.084 399.591 311.079C400.28 311.047 401.143 311.66 401.771 311.97C406.349 324.703 411.749 336.156 413.272 349.802C413.522 352.05 413.953 354.855 413.367 357.064L412.908 357.326C412.663 356.913 412.385 356.494 412.174 356.064Z" fill="#ECB37E"/>
<path d="M373.979 211.768C373.751 211.708 373.505 211.765 373.268 211.776C372.826 213.505 373.887 215.21 373.492 217.055C372.764 217.675 372.72 217.555 371.749 217.496C370.02 216.281 368.049 212.935 367.664 210.837C368.2 210.862 368.705 210.913 369.238 210.992L369.815 211.081C370.107 210.737 372.131 200.392 372.602 198.735C374.808 190.971 378.542 180.833 384.053 174.775C384.007 174.976 383.967 175.179 383.914 175.379C383.423 177.264 381.767 179.298 380.813 181.007C379.063 184.141 372.758 196.142 373.521 198.929C373.922 199.023 374.225 199.205 374.615 199.002C378.426 197.019 381.531 179.939 387.119 177.516C381.046 187.412 377.354 195.336 374.675 206.712C374.553 208.188 374.667 210.473 373.979 211.768Z" fill="#99592F"/>
<path d="M272.006 267.894C272.731 266.317 273.513 264.784 274.561 263.395C280.281 255.819 290.098 250.804 299.386 249.481C308.793 248.142 317.357 250.661 324.88 256.348C330.089 261.212 332.296 266.356 332.683 273.473C329.468 264.889 326.647 258.79 317.915 254.747C309.579 250.887 299.9 251.015 291.375 254.225C289.117 255.075 285.84 256.439 284.047 258.071C279.606 260.379 275.733 264.555 272.006 267.894Z" fill="url(#paint1_linear_1299_174)"/>
<path d="M269.715 298.315C267.339 290.173 269.023 276.923 271.18 268.644L270.752 268.298L269.897 269.013C270.21 266.507 272.22 263.495 273.703 261.497C279.695 253.42 288.222 246.445 298.438 244.97C306.461 243.812 313.937 245.923 320.382 250.759C322.282 252.184 324.521 253.883 324.88 256.348C317.356 250.661 308.793 248.142 299.386 249.481C290.098 250.804 280.281 255.819 274.561 263.395C273.513 264.784 272.731 266.317 272.006 267.893C275.733 264.554 279.606 260.379 284.047 258.071C282.993 260.197 273.755 267.288 271.441 269.236C268.871 278.688 269.158 287.06 269.722 296.68L269.829 296.708L269.781 297.526L270.226 297.478C270.151 297.051 270.042 296.657 269.946 296.239C269.652 294.968 269.917 293.325 269.993 292.023C270.438 284.399 272.334 276.413 276.819 270.078C277.605 268.968 278.503 268.07 279.48 267.136C279.813 266.817 280.069 266.496 280.357 266.141C280.765 265.639 280.88 265.48 281.468 265.276L281.984 265.344C275.974 272.212 271.731 278.754 271.08 288.123C270.408 290.863 271.526 296.276 270.356 298.264L269.715 298.315Z" fill="#CA7A38"/>
<path d="M319.402 221.024C320.662 220.834 321.88 220.817 323.132 221.079C329.875 222.493 335.931 227.741 339.656 233.36C344.603 240.82 346.686 251.378 344.666 260.154C344.463 261.037 344.373 261.554 343.588 262.068C342.725 261.332 342.658 260.642 342.303 259.58C341.38 255.459 340.219 251.393 338.343 247.594C332.912 236.589 323.837 230.558 312.522 226.755C314.572 224.218 316.523 222.562 319.402 221.024Z" fill="#542F11"/>
<path d="M281.984 265.344C288.505 260.253 294.994 257.469 303.41 258.47C311.598 259.445 318.864 264.125 323.884 270.566C325.551 272.704 332.575 284.378 332.461 286.357C332.433 286.836 332.324 286.748 331.889 287.098C331.632 287.301 331.306 287.438 331.117 287.706C330.557 288.498 330.269 291.67 329.975 292.769C328.441 298.525 325.869 306.124 321.739 310.598L320.998 309.999L319.357 309.211C320.133 307.726 320.95 306.286 321.806 304.846C325.26 297.644 327.319 289.929 326.077 281.925C323.634 280.076 318.87 275.931 315.63 276.012C312.175 271.797 308.407 268.822 302.752 268.296C297.689 267.825 293.097 269.992 289.366 273.242C287.591 274.787 286.029 276.547 284.57 278.389C283.56 278.112 283.174 278.274 282.268 278.804C279.045 280.689 276.813 283.915 273.995 286.281C273.322 290.646 273.016 294.798 273.157 299.214C273.796 301.449 279.163 304.482 278.999 305.982L278.209 306.691C276.943 305.058 275.361 303.362 273.792 302.02C272.038 300.52 270.299 299.714 267.971 299.918C267.312 299.976 266.823 300.025 266.165 299.883L266.302 299.47C267.487 298.643 268.277 298.412 269.715 298.315L270.356 298.264C271.526 296.276 270.408 290.863 271.08 288.123C271.731 278.754 275.974 272.212 281.984 265.344Z" fill="#010000"/>
<path d="M271.08 288.123C271.098 293.262 270.259 297.662 274.156 301.636C275.178 302.677 277.754 305.6 278.999 305.982L278.209 306.691C276.943 305.058 275.361 303.362 273.792 302.02C272.038 300.52 270.299 299.713 267.971 299.918C267.312 299.976 266.823 300.025 266.165 299.883L266.302 299.47C267.487 298.643 268.277 298.412 269.715 298.315L270.356 298.264C271.526 296.276 270.408 290.863 271.08 288.123Z" fill="#3F1810"/>
<path d="M328.523 283.625C329.602 284.823 330.755 285.953 331.889 287.097C331.632 287.3 331.306 287.438 331.117 287.706C330.557 288.498 330.269 291.669 329.975 292.769C328.441 298.524 325.869 306.124 321.739 310.598L320.997 309.999L319.357 309.211C320.133 307.726 320.95 306.286 321.806 304.846L324.174 304.259C327.152 297.197 328.298 291.255 328.523 283.625Z" fill="#CA7A38"/>
<path d="M321.806 304.846L324.174 304.259L320.997 309.999L319.357 309.211C320.133 307.726 320.95 306.286 321.806 304.846Z" fill="#251104"/>
<path d="M273.995 286.281C274.645 283.391 275.518 280.538 276.809 277.865C279.941 271.382 285.471 266.074 292.332 263.725C298.717 261.538 305.487 262.253 311.468 265.289C318.07 268.638 323.801 274.837 326.077 281.925C323.634 280.076 318.87 275.931 315.63 276.012C312.175 271.797 308.407 268.822 302.752 268.296C297.689 267.825 293.097 269.992 289.366 273.242C287.591 274.787 286.029 276.547 284.569 278.389C283.56 278.112 283.174 278.274 282.268 278.804C279.045 280.689 276.813 283.915 273.995 286.281Z" fill="#E2CEBE"/>
<path d="M284.569 278.389C286.029 276.547 287.591 274.787 289.366 273.241C293.097 269.992 297.689 267.825 302.752 268.296C308.407 268.822 312.175 271.797 315.63 276.012C318.87 275.931 323.634 280.075 326.077 281.924C327.319 289.929 325.26 297.644 321.806 304.846C320.95 306.286 320.133 307.726 319.357 309.211C317.469 309.009 315.443 307.436 313.41 307.04C311.151 306.666 305.434 306.227 303.953 304.744C301.931 304.387 299.714 304.389 297.658 304.252C296.2 304.499 294.776 304.746 293.296 304.817C291.177 304.979 288.367 305.724 286.336 305.188C284.387 305.417 282.452 305.885 280.528 306.272C278.256 303.771 275.886 301.225 273.157 299.214C273.015 294.798 273.322 290.646 273.995 286.281C276.813 283.915 279.045 280.689 282.268 278.804C283.174 278.274 283.56 278.112 284.569 278.389Z" fill="#272727"/>
<path d="M290.155 285.065C288.852 284.891 287.449 284.621 286.402 283.774C285.542 283.078 284.976 282.079 284.938 280.963C284.901 279.838 285.373 278.737 286.156 277.937C287.077 276.997 288.314 276.514 289.626 276.547C291.702 276.6 293.273 277.799 294.603 279.273C294.564 280.854 294.475 282.295 293.268 283.457C292.421 284.272 291.255 284.718 290.155 285.065Z" fill="#FEFEFD"/>
<path d="M273.995 286.281C276.813 283.915 279.045 280.689 282.268 278.804C283.174 278.274 283.56 278.112 284.569 278.389C281.505 284.449 280.271 291.772 282.392 298.356C283.213 300.901 284.516 303.223 286.336 305.188C284.387 305.417 282.452 305.885 280.528 306.272C278.256 303.771 275.886 301.225 273.157 299.214C273.015 294.798 273.322 290.646 273.995 286.281Z" fill="#FEFEFD"/>
<path d="M315.63 276.012C318.87 275.931 323.634 280.076 326.077 281.925C327.319 289.929 325.26 297.644 321.806 304.846C320.95 306.286 320.133 307.726 319.357 309.211C317.469 309.01 315.443 307.436 313.41 307.04C315.628 304.294 317.308 301.243 318.3 297.848C320.474 290.398 319.279 282.742 315.63 276.012Z" fill="#FEFEFD"/>
<path d="M294.603 279.273C297.501 277.654 300.718 276.684 304.032 277.546C307.156 278.359 309.645 280.757 311.12 283.561C313.159 287.434 313.215 291.977 311.822 296.074C310.586 299.705 308.242 302.786 304.722 304.424C304.47 304.542 304.212 304.642 303.954 304.745C301.931 304.387 299.714 304.389 297.658 304.252C295.368 302.995 293.341 301.157 291.894 298.977C289.002 294.624 289.078 289.96 290.155 285.065C291.255 284.718 292.421 284.272 293.268 283.457C294.475 282.295 294.564 280.854 294.603 279.273Z" fill="#010000"/>
<path d="M295.988 283.984C296.879 283.985 297.856 283.977 298.632 284.485C299.341 284.951 299.658 285.596 299.673 286.434C299.701 287.95 298.901 288.825 297.956 289.883C296.874 289.893 295.661 289.994 294.84 289.146C294.42 288.712 294.259 288.17 294.237 287.594C294.18 286.076 294.989 285.025 295.988 283.984Z" fill="#C7A18E"/>
<path d="M387.119 177.516C390.219 173.901 394.064 169.604 399.156 169.25C404.388 168.886 409.718 173.28 413.355 176.611C420.107 182.794 427.794 195.141 437.987 194.843C441.663 194.735 444.783 192.948 447.585 190.705C449.191 188.673 450.701 186.631 452.122 184.465C452.067 188.088 450.898 191.988 450.045 195.508C446.509 210.091 441.115 227.094 430.077 237.776C424.412 243.258 417.865 246.68 410.712 249.817C409.013 255.471 406.265 258.849 401.849 262.701C403.28 259.558 405.853 254.575 405.294 251.042L404.735 250.547L403.474 250.739C402.557 250.625 402.086 250.46 401.314 249.952L400.942 250.18C398.737 247.36 398.534 243.572 395.714 240.882C395.453 242.081 395.263 243.201 395.192 244.427L394.217 242.999C393.5 241.685 392.378 240.478 391.487 239.262C390.6 238.289 389.61 237.461 388.611 236.608C387.069 235.745 385.905 235.287 384.108 235.332L383.91 235.684C382.907 235.891 381.31 236.441 380.384 235.994C379.932 232.613 381.208 229.03 381.362 225.619C381.672 218.73 378.191 216.326 373.979 211.768C374.667 210.473 374.553 208.188 374.675 206.712C377.354 195.336 381.046 187.412 387.119 177.516Z" fill="#D47269"/>
<path d="M452.122 184.465C452.067 188.088 450.898 191.988 450.045 195.508C446.509 210.091 441.115 227.094 430.077 237.776C424.412 243.258 417.865 246.68 410.712 249.817C409.013 255.471 406.265 258.849 401.849 262.701C403.28 259.558 405.853 254.575 405.294 251.042L404.735 250.547L403.474 250.739C402.557 250.625 402.086 250.46 401.314 249.952L400.942 250.18C398.737 247.36 398.534 243.572 395.714 240.882C395.453 242.081 395.263 243.201 395.192 244.427L394.217 242.999C393.5 241.685 392.378 240.478 391.487 239.262C390.6 238.289 389.61 237.461 388.611 236.608C387.069 235.745 385.905 235.287 384.108 235.332L383.91 235.684C382.907 235.891 381.31 236.441 380.384 235.994C379.932 232.613 381.208 229.03 381.362 225.619C381.672 218.73 378.191 216.326 373.979 211.768C374.667 210.473 374.553 208.188 374.675 206.712C375.417 209.145 380.994 214.965 382.842 218.093C385.078 212.671 388.751 203.378 394.78 201.196C395.713 200.858 396.173 200.919 397.092 201.227C398.361 202.652 398.237 204.577 398.141 206.382C397.908 210.794 396.355 215.17 395.106 219.38L395.196 221.117C398.573 219.63 404.672 216.383 408.338 217.96C409.113 218.293 410.183 219.076 410.43 219.907C410.582 220.421 410.574 221.076 410.628 221.61C410.69 222.224 410.619 221.981 410.92 222.498C412.383 221.832 414.338 220.937 415.951 221.354L416.344 222.12C416.568 229.423 410.422 239.886 407.845 246.905L409.462 246.422C416.4 244.398 423.07 239.795 427.989 234.552C437.089 224.851 442.109 212.712 445.676 200.083C446.508 197.135 447.669 193.772 447.585 190.705C449.191 188.673 450.701 186.631 452.122 184.465Z" fill="#A47360"/>
<path d="M395.106 219.38L395.196 221.117C398.573 219.629 404.672 216.383 408.338 217.96C409.113 218.292 410.183 219.075 410.43 219.907C410.582 220.421 410.574 221.076 410.628 221.61C410.69 222.223 410.619 221.981 410.92 222.498C409.822 223.709 407.494 224.392 405.992 225.054L406.417 223.032C406.752 221.401 406.699 220.468 405.769 219.052C402.243 216.69 398.092 221.968 394.639 221.696C394.435 220.732 394.757 220.287 395.106 219.38Z" fill="#C35F61"/>
<path d="M401.329 222.844C402.394 222.192 403.302 221.893 404.511 221.596C402.061 225.333 395.411 232.043 395.024 236.235L395.466 237.216L395.216 238.28L395.51 239.395L396.145 239.723L395.714 240.882C395.453 242.081 395.263 243.201 395.192 244.427L394.217 242.999C393.5 241.685 392.378 240.478 391.487 239.262C390.6 238.289 389.61 237.461 388.611 236.608C389.229 235.682 389.633 234.572 390.081 233.551L390.698 232.08C393.282 227.598 396.598 224.827 401.329 222.844Z" fill="#DBB49F"/>
<path d="M395.216 238.28L395.51 239.395L396.145 239.723L395.714 240.882C395.453 242.081 395.263 243.201 395.192 244.427L394.217 242.999C394.278 241.281 394.192 239.733 395.216 238.28Z" fill="#FEFEFD"/>
<path d="M401.329 222.844C400.279 224.768 396.397 227.017 394.804 229.339C392.746 232.337 393.019 236.151 391.487 239.262C390.6 238.289 389.61 237.461 388.611 236.608C389.229 235.682 389.633 234.572 390.081 233.551L390.698 232.08C393.282 227.598 396.598 224.827 401.329 222.844Z" fill="#FEFEFD"/>
<path d="M394.153 207.01C393.67 211.797 389.053 228.524 390.698 232.08L390.081 233.551C389.633 234.572 389.229 235.682 388.611 236.608C387.069 235.745 385.905 235.287 384.108 235.332L383.832 235.013C382.741 231.355 385.829 219.166 387.64 215.439C389.191 211.975 391.184 209.377 394.153 207.01Z" fill="#F0CCAA"/>
<path d="M387.64 215.439C387.924 215.174 388.647 214.646 388.772 214.312L389.34 214.015C388.844 217.846 388.334 221.823 387.411 225.575C386.904 227.638 385.971 229.648 385.647 231.742C385.787 231.839 385.939 231.922 386.066 232.036C386.163 232.125 386.455 232.531 386.544 232.651L386.15 232.739L387.078 230.196L386.757 230.709L387.109 230.204C387.325 230.939 387.225 231.168 387.88 231.606C388.487 232.013 388.909 232.515 389.4 233.045C389.743 233.415 389.596 233.281 390.081 233.551C389.633 234.572 389.229 235.681 388.611 236.608C387.069 235.745 385.905 235.287 384.108 235.332L383.832 235.013C382.741 231.355 385.829 219.166 387.64 215.439Z" fill="#E2CEBE"/>
<path d="M411.573 225.982L412.181 225.934C412.418 229.081 403.485 246.501 401.314 249.952L400.942 250.18C398.737 247.36 398.534 243.572 395.714 240.882L396.145 239.723L395.51 239.395L395.216 238.28L395.466 237.216C395.864 236.602 396.268 235.991 396.698 235.399C400.09 230.729 405.849 226.933 411.573 225.982Z" fill="#DBB49F"/>
<path d="M395.466 237.216C395.864 236.602 396.268 235.991 396.698 235.399C400.09 230.729 405.849 226.933 411.573 225.982C411.486 226.212 411.495 226.506 411.313 226.67C410.454 227.448 404.79 230.115 402.801 231.651C399.919 233.875 398.058 236.681 396.145 239.723L395.51 239.395L395.216 238.28L395.466 237.216Z" fill="#FEFEFD"/>
<path d="M189.325 129.492C183.534 130.709 169.224 134.912 164.378 131.773C163.044 130.908 162.211 129.601 161.935 128.039C160.86 121.935 165.538 113.696 169.054 109.029C177.038 98.437 189.265 89.0546 202.692 87.2727C218.438 85.1828 235.982 92.606 248.247 102.04C264.629 114.64 278.489 137.83 284.302 157.779C291.925 158.746 299.065 160.384 306.395 162.638C304.216 160.708 299.523 157.19 299.359 154.152C299.31 153.234 299.652 153.042 300.262 152.477C304.99 150.992 313.775 155.401 317.915 157.585C324.879 161.26 331.093 166.684 335.576 173.167C335.637 170.203 335.326 166.038 337.43 163.695C338.253 163.446 338.429 163.384 339.246 163.82C343.142 165.897 348.384 179.583 349.825 183.819C357.318 175.158 364.038 165.612 372.224 157.591C385.56 144.523 405.217 140.752 423.224 139.455C433.827 138.691 459.116 138.865 467.069 145.547C470.601 148.515 471.356 153.624 471.638 157.984C472.863 176.961 465.83 196.968 460.628 214.946C457.68 225.131 455.038 235.529 450.609 245.192C452.795 251.503 451.14 257.906 448.296 263.749C444.227 272.11 437.568 278.577 428.689 281.552C424.462 282.969 419.981 283.735 415.536 284.001C417.3 287.541 420.884 293.492 419.856 297.494C419.631 298.37 418.815 299.242 418.264 299.943C418.584 304.414 424.094 311.583 420.066 315.761C419.687 316.154 419.506 316.034 419.005 316.044C416.782 314.995 415.075 313.095 413.093 311.66C410.707 309.932 407.115 308.792 404.331 307.817C410.36 322.045 416.373 337.069 416.765 352.733C416.806 354.389 416.989 357.76 416.238 359.207C416.015 359.637 415.974 359.639 415.676 359.93C414.814 360.017 414.467 359.92 413.761 359.391C411.301 357.548 408.928 353.87 407.113 351.359C406.626 350.4 406.37 349.715 406.269 348.64C408.146 351.222 410.17 353.592 412.174 356.064C412.385 356.494 412.663 356.913 412.908 357.326L413.367 357.064C413.953 354.855 413.522 352.05 413.272 349.802C411.749 336.156 406.349 324.703 401.771 311.97C400.482 308.299 398.959 304.758 397.345 301.222C404.98 301.685 411.771 305.128 417.552 309.956C415.322 300.754 412.985 297.238 405.834 291.119C408.909 291.786 411.654 292.698 414.468 294.119C414.839 294.515 415.188 294.667 415.664 294.915L415.933 294.365C415.345 290.255 412.374 285.532 410.2 282.044C407.831 277.882 405.306 273.833 403.394 269.433C405.621 272.282 409.179 278.108 412.508 279.526C416.335 281.156 426.169 278.34 429.931 276.726C437.13 273.637 442.863 267.603 445.749 260.344C447.309 257.793 447.851 254.664 448.505 251.784C445.948 255.844 441.986 261.324 437.157 262.801L436.743 262.498C437.044 261.978 437.342 261.471 437.677 260.972C443.924 254.596 450.987 234.897 452.89 225.628L460.88 196.509C462.933 189.045 465.525 181.217 466.267 173.488C467.671 168.047 467.937 161.67 467.48 156.079C460.833 164.276 456.631 174.957 452.122 184.465C450.701 186.631 449.191 188.673 447.585 190.705C444.783 192.948 441.662 194.735 437.987 194.842C427.794 195.141 420.107 182.794 413.355 176.611C409.718 173.28 404.388 168.886 399.156 169.25C394.064 169.604 390.219 173.901 387.119 177.516C381.531 179.939 378.426 197.019 374.615 199.002C374.225 199.205 373.922 199.023 373.521 198.929C372.758 196.142 379.063 184.141 380.813 181.007C381.767 179.298 383.423 177.264 383.914 175.379C383.967 175.179 384.007 174.976 384.053 174.775C386.42 171.33 389.872 167.914 393.61 165.985C403.422 160.921 413.443 169.445 419.742 176.281C423.988 180.889 428.725 188.636 435.004 190.5C437.524 191.248 440.211 190.937 442.493 189.621C443.936 188.788 445.066 187.577 445.993 186.208C451.109 178.657 454.615 169.63 458.958 161.588C460.892 158.008 464.7 153.194 465.758 149.526C465.567 149.084 465.557 149.005 465.241 148.576C463.648 146.415 457.885 145.443 455.323 145.022L455.135 145.469C431.118 143.417 399.156 142.566 379.657 158.961C376.755 161.401 374.041 164.067 371.475 166.855C368.019 170.609 349.203 193.602 346.206 193.629C344.144 195.31 342.116 197.18 339.821 198.532C338.012 199.812 336.049 200.906 334.147 202.043L339.269 196.245C341.514 192.445 345.563 189.113 348.335 185.6C345.064 180.461 342.361 174.986 339.042 169.868C338.406 174.305 338.873 178.828 338.92 183.292L338.641 183.504L337.726 182.92C335.24 182.374 321.152 160.547 307.375 158.937C309.636 161.481 316.442 168.544 317.098 171.536C300.785 163.265 285.075 161.365 267.14 160.465C263.379 159.875 259.313 160.062 255.531 160.418C262.087 163.798 268.81 165.893 275.796 168.157C275.453 168.372 275.278 168.521 274.83 168.576C273.987 168.678 272.794 168.392 271.924 168.324C269.324 168.124 266.948 168.584 264.462 169.308C259.096 169.522 253.767 169.702 248.444 170.46C235.831 172.257 211.948 178.407 203.171 187.217L203.166 187.796L201.92 189.079C202.8 188.518 203.927 187.488 204.941 187.666C203.206 189.203 199.391 192.733 197.69 193.873C195.642 196.497 193.404 199.192 192.739 202.55C199.078 197.132 209.389 190.902 218.116 191.413C219.342 191.485 220.88 191.878 221.632 192.947C223.202 195.18 222.838 199.694 222.634 202.346C216.958 199.668 212.047 199.738 206.198 201.873C201.367 203.635 195.767 206.792 192.467 210.821C191.419 214.285 186.549 221.142 184.509 224.906C182.775 228.103 181.347 231.735 179.4 234.776C178.522 237.134 177.529 239.416 176.488 241.706C173.853 248.979 167.952 255.258 160.985 258.522C155.184 261.239 149.196 262.44 142.959 263.636L142.913 262.464C141.03 262.717 139.121 263.057 137.221 263.128C137.149 263.114 137.078 263.09 137.005 263.087C136.083 263.058 135.405 263.084 134.479 262.877L134.182 262.366L134.52 261.804C146.631 260.009 160.022 256.077 167.619 245.836C171.687 240.353 175.186 233.126 176.919 226.522C178.031 222.288 178.815 217.999 180.221 213.839C182.117 208.227 184.791 203.177 187.797 198.105C184.097 193.26 183.039 184.687 183.803 178.786C184.213 175.621 185.214 172.018 187.811 169.967C187.967 166.345 188.259 162.778 188.857 159.199C190.485 149.465 193.698 138.973 189.325 129.492Z" fill="#542F11"/>
<path d="M196.184 193.414C198.173 191.336 200.54 188.48 203.171 187.217L203.166 187.796L201.92 189.079C202.8 188.518 203.927 187.488 204.941 187.666C203.206 189.203 199.391 192.733 197.69 193.873C195.642 196.497 193.404 199.192 192.739 202.55C189.823 204.866 187.438 208.436 185.126 211.356C187.826 204.915 191.756 198.793 196.184 193.414Z" fill="#F0CCAA"/>
<path d="M178.285 233.916C181.129 224.955 185.703 217.36 192.466 210.821C191.419 214.286 186.549 221.142 184.509 224.906C182.774 228.103 181.347 231.735 179.4 234.776L179.094 234.759L178.266 235.94L178.059 235.912L178.623 234.406L178.285 233.916Z" fill="#F0CCAA"/>
<path d="M304.662 156.262C316.106 160.452 324.936 165.599 332.555 175.344C334.373 177.67 336.369 180.299 337.726 182.92C335.24 182.374 321.152 160.546 307.375 158.937L304.662 156.262Z" fill="#F0CCAA"/>
<path d="M187.94 174.453C188.434 176.429 188.925 178.403 189.49 180.36C190.543 182.749 194.086 187.867 194.506 189.394C194.572 189.631 194.407 189.877 194.358 190.118C192.976 191.211 191.773 192.732 190.573 194.031C188.678 191.045 187.83 187.734 187.316 184.276C187.024 180.924 187.45 177.764 187.94 174.453Z" fill="#D2823C"/>
<path d="M189.49 180.36C190.543 182.749 194.086 187.867 194.506 189.394C194.572 189.632 194.407 189.877 194.358 190.118C193.96 189.949 193.548 189.783 193.169 189.572C190.905 188.31 189.836 184.435 189.218 182.093L189.49 180.36Z" fill="#DD8F45"/>
<path d="M178.285 233.916L178.623 234.406L178.059 235.912L178.266 235.94L179.094 234.759L179.4 234.776C178.522 237.134 177.529 239.416 176.488 241.706C173.852 248.979 167.952 255.258 160.985 258.522C155.183 261.239 149.196 262.44 142.959 263.636L142.912 262.464C152.26 260.987 162.143 258.21 168.633 250.873C170.587 248.666 172.063 245.969 173.81 243.593C175.253 240.347 176.777 237.132 178.285 233.916Z" fill="#F0CCAA"/>
<path d="M346.206 193.629C351.61 188.042 356.548 182.256 361.494 176.266C367.37 169.151 373.171 161.231 380.691 155.771C399.234 142.307 433.361 141.466 455.323 145.022L455.135 145.469C431.118 143.417 399.156 142.566 379.657 158.961C376.755 161.401 374.041 164.067 371.475 166.855C368.019 170.609 349.203 193.602 346.206 193.629Z" fill="#F0CCAA"/>
<path d="M186.43 98.3176C196.558 91.9563 205.86 90.2214 217.59 92.8737C232.857 96.326 246.876 105.381 256.953 117.267L256.64 117.463C253.769 115.298 251.296 112.606 248.446 110.385C239.844 103.679 229.461 98.374 218.913 95.5865C207.495 92.5681 196.822 93.4814 186.552 99.4034C179.628 103.501 169.358 113.338 167.332 121.321C166.681 123.892 166.609 126.4 166.32 129.015C166.062 128.756 165.682 128.418 165.506 128.084C164.764 126.688 164.896 124.531 165.214 123.033C167.179 113.794 178.969 103.371 186.43 98.3176Z" fill="#F0CCAA"/>
<path d="M193.012 128.944C194.777 129.106 196.611 128.854 198.339 129.097C197.585 131.451 199.126 137.272 199.119 140.139C199.085 153.899 193.668 169.81 200.412 182.773C200.559 183.054 200.712 183.331 200.875 183.603C200.139 184.323 198.192 186.425 197.286 186.544C194.2 182.709 192.457 176.916 192.086 172.072C191.191 161.797 194.176 151.98 194.988 141.812L194.882 140.019C194.684 136.182 193.964 132.655 193.012 128.944Z" fill="url(#paint2_linear_1299_174)"/>
<path d="M193.012 128.944C194.33 129.625 194.557 130.154 195.016 131.579C195.674 133.629 196.078 136.271 196.032 138.422C196.029 140.459 196.108 142.525 195.852 144.548C194.889 152.576 192.394 161.31 193.111 169.372C193.349 172.267 193.762 175.023 194.509 177.833C195.123 180.142 197.372 184.479 197.286 186.544C194.2 182.709 192.457 176.916 192.086 172.072C191.191 161.797 194.176 151.98 194.988 141.812L194.882 140.019C194.684 136.182 193.964 132.655 193.012 128.944Z" fill="#DBB49F"/>
<path d="M198.339 129.097C204.571 129.867 210.034 132.312 213.962 137.368C218.236 142.87 219.717 149.607 221.163 156.26C221.827 158.742 222.492 161.26 222.658 163.835C223.284 164.687 223.865 165.542 224.663 166.244L225.9 166.88C226.272 168.402 226.659 169.917 226.948 171.457C225.988 171.773 224.941 172.044 224.027 172.466L222.194 173.173L219.54 174.086L215.368 175.637L213.663 176.412C209.177 178.408 204.786 180.603 200.875 183.603C200.712 183.331 200.559 183.054 200.412 182.773C193.668 169.81 199.085 153.899 199.119 140.139C199.126 137.272 197.585 131.451 198.339 129.097Z" fill="#D47269"/>
<path d="M218.15 167.455C216.839 165.345 212.96 159.193 212.983 156.981C212.993 155.958 213.131 155.824 213.803 155.135C216.854 154.959 218.378 158.901 221.117 159.234C221.188 158.241 221.173 157.255 221.163 156.26C221.827 158.742 222.492 161.26 222.658 163.835C223.284 164.687 223.865 165.542 224.663 166.244L225.9 166.88C226.272 168.402 226.658 169.917 226.948 171.457C225.988 171.773 224.941 172.043 224.027 172.466L222.194 173.173L219.54 174.086L215.368 175.637L213.663 176.412C213.372 175.284 209.27 169.265 208.302 167.395C208.207 166.679 208.243 166.132 208.287 165.415C208.812 164.276 209.731 163.811 210.754 163.147C213.26 164.488 215.866 165.753 218.15 167.455Z" fill="#A47360"/>
<path d="M210.543 166.642C212.703 167.391 214.796 168.383 216.801 169.478L214.411 169.772C213.676 169.837 213.015 169.739 212.44 170.22C211.726 169.102 211.16 167.821 210.543 166.642Z" fill="#F0CCAA"/>
<path d="M216.801 169.478C218.69 170.307 220.92 171.499 222.194 173.173L219.54 174.086C218.787 172.505 215.832 170.816 214.411 169.772L216.801 169.478Z" fill="#DBB49F"/>
<path d="M212.44 170.22C213.015 169.739 213.676 169.837 214.411 169.772C215.832 170.816 218.787 172.505 219.54 174.086L215.368 175.637C214.29 173.914 213.395 172.018 212.44 170.22Z" fill="#E2CEBE"/>
<path d="M224.663 166.245L225.9 166.88C226.272 168.402 226.658 169.917 226.948 171.458C225.988 171.773 224.941 172.044 224.027 172.466C222.889 171.194 221.931 169.911 221.146 168.389L221.911 167.907C222.516 167.926 223.057 167.99 223.639 167.774C224.13 167.592 224.419 166.705 224.663 166.245Z" fill="#ECB37E"/>
<path d="M215.396 157.788C218.021 159.59 220.324 161.681 222.658 163.835C223.284 164.687 223.865 165.542 224.663 166.244C224.419 166.705 224.13 167.592 223.639 167.774C223.057 167.99 222.516 167.926 221.911 167.907L221.146 168.389C219.285 164.825 217.239 161.365 215.396 157.788Z" fill="#E2CEBE"/>
<path d="M186.552 99.4034C196.822 93.4815 207.494 92.5681 218.913 95.5865C229.461 98.374 239.843 103.679 248.446 110.385C251.296 112.606 253.769 115.298 256.64 117.463L256.953 117.267C261.831 121.924 266.157 128.682 269.371 134.605C273.794 141.398 277.006 149.612 279.733 157.229C274.205 156.905 255.784 155.069 252.359 158.48C251.71 159.126 251.827 159.576 251.854 160.411C253.239 162.99 255.514 164.013 257.956 165.418C250.426 165.798 242.878 166.475 235.635 168.709C232.712 169.485 229.754 170.32 226.948 171.458C226.658 169.917 226.272 168.402 225.9 166.88C225.921 166.513 225.932 166.144 225.922 165.776C225.631 155.282 222.116 139.398 214.247 131.801C200.978 118.992 181.997 128.862 166.32 129.015C166.608 126.4 166.68 123.892 167.332 121.321C169.358 113.338 179.628 103.501 186.552 99.4034Z" fill="#DD8F45"/>
<path d="M211.876 119.053C223.802 121.231 233.992 127.257 245.329 131.111C250.866 132.994 256.881 133.99 262.691 134.609C264.649 134.818 267.532 135.383 269.371 134.605C273.794 141.398 277.006 149.612 279.733 157.229C274.205 156.905 255.784 155.069 252.359 158.48C251.71 159.126 251.827 159.576 251.854 160.411C253.239 162.99 255.514 164.013 257.956 165.418C250.426 165.798 242.878 166.475 235.635 168.709C234.182 156.364 231.548 142.364 224.814 131.766C221.441 126.459 215.845 121.133 209.517 119.76L209.263 119.255C210.136 119.155 210.999 119.099 211.876 119.053Z" fill="#D2823C"/>
<path d="M275.796 168.157C277.524 168.614 280.586 169.248 281.906 170.403L282.361 170.527C286.247 171.557 290.489 171.775 294.446 172.622C306.741 175.253 320.35 179.932 330.588 187.304C316.464 184.319 300.312 188.604 288.35 196.352C266.361 210.593 251.563 241.838 246.252 267.028C245.075 272.611 243.45 279.852 246.75 284.95C251.235 291.877 258.572 296.487 264.538 301.959L263.962 303.234L264.162 303.535C264.29 303.436 264.417 303.334 264.547 303.238C264.976 302.918 265.365 302.7 265.844 302.472C268.59 303.108 271.351 306.409 273.048 308.586C274.776 308.006 276.572 307.499 278.209 306.691L278.999 305.982C279.163 304.482 273.796 301.448 273.157 299.214C275.887 301.225 278.256 303.771 280.529 306.272C282.452 305.885 284.388 305.417 286.336 305.188C288.367 305.724 291.177 304.979 293.296 304.817C294.776 304.746 296.2 304.499 297.658 304.252C299.714 304.389 301.931 304.387 303.954 304.744C305.435 306.227 311.151 306.666 313.41 307.04C315.443 307.436 317.469 309.01 319.357 309.211L320.998 309.999L321.739 310.598C325.918 313.368 328.665 316.415 331.139 320.779C333.726 320.01 341.799 324.365 344.275 325.696C355.987 331.995 366.659 341.99 374.817 352.435C378.999 357.789 382.309 363.081 387.262 367.839C389.927 369.641 392.203 372.005 394.823 373.89C398.301 376.264 402.002 378.815 405.154 381.598C404.862 384.01 404.226 387.741 402.648 389.635C401.171 385.219 398.713 378.609 395.318 375.377C395.343 375.498 395.361 375.619 395.393 375.737C396.774 380.822 399.894 382.97 396.366 389.339C394.087 393.456 389.223 395.96 384.806 397.141C379.408 398.584 373.89 398.372 368.442 397.369C375.912 400.277 382.039 401.316 389.909 399.738C387.232 401.842 384.607 403.522 381.429 404.783C369.717 409.436 352.09 409.852 339.563 408.323C338.467 408.189 337.375 408.031 336.284 407.865C341.469 410.904 346.803 412.844 352.595 414.395C339.003 414.967 330.531 411.593 317.728 408.575C322.575 411.108 327.381 413.682 332.154 416.353C322.765 418.236 310.386 417.196 300.757 416.843C285.801 416.293 270.708 415.668 255.813 414.175C261.06 411.809 266.229 410.104 271.777 408.594C250.981 410.108 234.864 420.389 213.535 413.061C208.644 411.38 203.82 408.975 199.879 405.586C194.178 400.682 191.085 393.976 190.033 386.621C189.877 387.685 189.496 388.625 189.116 389.623L188.857 389.482C188.294 386.339 188.558 382.865 188.542 379.671C188.635 373.935 191.352 368.549 191.166 362.896C190.791 361.123 190.44 357.626 189.036 356.41C188.119 355.615 187.403 355.794 186.268 355.772C184.669 355.733 183.039 355.544 181.605 354.802L181.571 354.201C182.18 353.826 182.694 353.696 183.392 353.546C185.328 353.239 187.219 352.784 189.124 352.33C186.321 346.259 184.179 340.381 182.751 333.845C173.682 325.211 169.759 314.932 166.413 303.113C166.012 301.585 165.962 299.772 165.7 298.198C165.381 296.028 165.272 293.992 166.591 292.126C169.693 287.734 178.15 287.071 183.05 286.143C179.747 281.847 176.487 277.161 172.633 273.347C164.072 264.877 152.138 265.002 140.912 265.119L140.151 264.949C140.206 264.843 140.242 264.725 140.317 264.632C140.997 263.781 141.958 263.823 142.959 263.636C149.196 262.44 155.184 261.239 160.985 258.522C167.952 255.258 173.853 248.979 176.488 241.706C177.529 239.416 178.522 237.134 179.4 234.776C181.347 231.735 182.775 228.103 184.509 224.906C186.549 221.142 191.419 214.285 192.467 210.821C195.767 206.792 201.367 203.635 206.198 201.872C212.047 199.738 216.958 199.668 222.634 202.346C222.838 199.694 223.202 195.18 221.632 192.947C220.88 191.878 219.342 191.485 218.116 191.413C209.389 190.902 199.078 197.132 192.739 202.55C193.404 199.192 195.642 196.497 197.69 193.873C199.391 192.733 203.206 189.203 204.941 187.666C203.927 187.488 202.8 188.518 201.92 189.079L203.166 187.796L203.171 187.217C211.948 178.407 235.831 172.257 248.444 170.46C253.767 169.702 259.096 169.522 264.462 169.308C266.948 168.584 269.324 168.124 271.924 168.324C272.794 168.391 273.987 168.678 274.83 168.576C275.278 168.521 275.453 168.372 275.796 168.157Z" fill="#E2CEBE"/>
<path d="M275.796 168.157C277.524 168.614 280.586 169.248 281.906 170.403C276.058 170.069 270.348 169.396 264.462 169.308C266.948 168.584 269.324 168.124 271.924 168.324C272.793 168.391 273.987 168.678 274.83 168.576C275.278 168.521 275.453 168.372 275.796 168.157Z" fill="#99592F"/>
<path d="M205.478 282.376C214.655 282.185 223.921 283.822 232.351 287.488C233.181 287.849 234.688 288.244 235.358 288.784C235.498 288.895 235.591 289.054 235.707 289.189C232.506 288.856 228.889 286.878 225.619 286.171C213.234 283.495 208.87 284.758 196.969 285.934C197.615 285.513 198.217 285.063 199 284.967C200.302 284.809 201.56 284.593 202.837 284.275L203.041 283.924L202.878 283.468L199.569 284.326L199.377 284.084L203.614 282.591C204.234 282.544 204.878 282.542 205.478 282.376Z" fill="url(#paint3_linear_1299_174)"/>
<path d="M273.157 299.214C275.887 301.225 278.256 303.771 280.528 306.272C282.452 305.885 284.387 305.417 286.336 305.188C288.367 305.724 291.177 304.979 293.296 304.817C294.776 304.746 296.2 304.499 297.658 304.252C299.714 304.389 301.931 304.387 303.953 304.744C305.434 306.227 311.151 306.666 313.41 307.04C315.443 307.436 317.469 309.01 319.357 309.211L320.998 309.999L321.739 310.598C325.918 313.368 328.665 316.415 331.139 320.779L331.063 321.791C330.108 321.647 328.955 320.318 328.199 319.652L327.449 320.697C325.181 320.584 319.267 316.988 316.646 315.932C313.732 314.757 310.696 313.849 307.594 313.339C300.698 312.206 293.187 311.902 286.196 312.38C282.457 312.636 278.488 313.58 274.759 313.101L274.134 312.155C268.686 313.522 263.664 316.594 258.318 318.37C262.616 313.937 267.521 311.186 273.048 308.586C274.776 308.006 276.572 307.499 278.209 306.691L278.999 305.982C279.163 304.482 273.796 301.448 273.157 299.214Z" fill="#542F11"/>
<path d="M297.658 304.252C299.714 304.389 301.931 304.387 303.954 304.745C305.435 306.227 311.151 306.666 313.41 307.04L312.645 307.465C309.727 306.981 306.824 306.311 303.867 306.118C301.064 305.935 297.852 306.236 295.121 305.704C294.457 305.575 293.854 305.18 293.296 304.817C294.776 304.747 296.2 304.499 297.658 304.252Z" fill="#251104"/>
<path d="M274.134 312.155C288.585 307.788 305.764 305.841 319.583 313.279C322.694 314.954 325.762 317.081 328.199 319.652L327.449 320.697C325.181 320.584 319.267 316.988 316.645 315.932C313.732 314.757 310.696 313.849 307.594 313.339C300.698 312.206 293.187 311.902 286.196 312.38C282.457 312.636 278.488 313.58 274.759 313.102L274.134 312.155Z" fill="#FEFEFD"/>
<path d="M343.614 357.544C356.288 372.487 356.685 380.655 377.455 387.178C372.739 383.95 368.026 380.619 363.64 376.953C370.16 378.818 375.85 382.314 382.555 383.856C377.322 380.775 372.578 377.618 368.049 373.554C373.915 375.786 379.71 379.105 385.975 380.017C382.181 376.649 377.535 374.153 373.585 370.896C378.532 371.857 383.282 374.057 387.917 375.976C383.169 371.662 378.397 367.399 374.094 362.628C376.497 363.819 378.794 365.22 381.204 366.398C382.883 367.219 385.423 368.452 387.262 367.839C389.927 369.641 392.203 372.005 394.823 373.89C398.301 376.264 402.001 378.816 405.154 381.598C404.862 384.01 404.226 387.742 402.648 389.635C401.171 385.219 398.713 378.609 395.318 375.378C395.343 375.498 395.361 375.619 395.393 375.737C396.774 380.822 399.894 382.97 396.366 389.339C394.087 393.456 389.223 395.96 384.806 397.141C379.408 398.584 373.89 398.372 368.442 397.369C375.912 400.277 382.039 401.316 389.909 399.738C387.232 401.842 384.607 403.522 381.429 404.784C369.717 409.436 352.09 409.852 339.563 408.323C338.467 408.19 337.375 408.031 336.283 407.865C341.469 410.904 346.803 412.844 352.595 414.395C339.003 414.967 330.531 411.593 317.728 408.575C322.575 411.108 327.381 413.682 332.154 416.353C322.765 418.236 310.386 417.197 300.757 416.843C285.801 416.293 270.708 415.669 255.813 414.175C261.06 411.81 266.228 410.105 271.777 408.594C250.981 410.109 234.864 420.389 213.535 413.061C208.644 411.381 203.819 408.975 199.879 405.586C194.178 400.682 191.085 393.977 190.033 386.621C189.682 382.389 190.492 376.414 191.604 372.285C191.886 376.055 192.515 379.56 193.464 383.22C193.137 383.379 192.833 383.439 192.646 383.775C191.96 385.008 192.346 387.106 192.593 388.411C193.764 394.594 197.153 399.149 202.362 402.545C208.893 406.804 216.488 408.651 224.241 408.075C229.783 407.663 235.189 406.201 240.427 404.407C248.641 401.594 256.162 397.03 264.65 394.971C271.797 393.236 279.375 392.65 286.68 391.807C295.547 390.784 304.413 389.65 313.317 388.992C322.549 388.309 331.609 387.9 340.701 386.026C337.106 381.166 332.771 377.153 328.432 372.972C333.925 375.325 338.678 377.965 343.53 381.434C340.644 376.459 337.379 372.428 333.203 368.486C337.138 370.337 341.27 372.298 344.583 375.154C342.332 370.382 340.199 365.573 337.86 360.838C341.207 364.043 343.53 368.289 346.894 371.488C345.851 366.829 344.718 362.189 343.614 357.544Z" fill="#DBB49F"/>
<path d="M204.941 187.666C222.829 176.71 242.901 171.257 263.804 170.71C247.727 181.334 237.171 198.434 233.37 217.169C229.669 235.409 228.977 257.677 217.969 273.482C216.435 275.686 214.364 278.316 212.111 279.811C210.079 281.161 207.29 281.072 205.478 282.376C204.878 282.542 204.234 282.544 203.614 282.591L199.377 284.084C198.657 283.812 197.971 283.425 197.282 283.08C196.021 283.421 194.671 283.598 193.386 283.843C192.182 282.919 191.009 281.965 189.838 281L188.536 281.616L191.248 284.255L183.05 286.144C179.747 281.847 176.487 277.161 172.633 273.348C164.072 264.877 152.138 265.002 140.912 265.119L140.151 264.949C140.206 264.843 140.242 264.725 140.317 264.632C140.997 263.781 141.958 263.823 142.959 263.637C149.196 262.44 155.184 261.239 160.985 258.522C167.952 255.259 173.853 248.979 176.488 241.706C177.529 239.416 178.522 237.134 179.4 234.776C181.347 231.735 182.775 228.104 184.509 224.906C186.549 221.142 191.419 214.286 192.467 210.821C195.767 206.792 201.367 203.635 206.198 201.873C212.047 199.738 216.958 199.668 222.634 202.346C222.838 199.694 223.202 195.18 221.632 192.947C220.88 191.878 219.342 191.485 218.116 191.413C209.389 190.902 199.078 197.132 192.739 202.55C193.404 199.192 195.642 196.497 197.69 193.874C199.391 192.733 203.206 189.203 204.941 187.666Z" fill="#DD8F45"/>
<path d="M201.242 223.41C205.202 223.136 208.956 224.245 212.16 226.601C217.546 230.562 219.885 236.496 220.815 242.9C218.165 237.636 215.985 232.847 211.48 228.907C209.32 227.466 207.179 226.305 204.57 225.893C197.053 224.708 190.908 229.567 185.26 233.723C189.951 228.027 193.936 224.949 201.242 223.41Z" fill="#010000"/>
<path d="M184.197 243.165C182.645 243.557 181.264 243.931 179.645 243.875L179.186 243.556C181.425 240.293 194.986 235.454 199.049 234.768C203.9 233.949 209.545 234.361 213.617 237.335C216.379 239.352 217.808 242.365 218.292 245.69C219.76 255.765 215.016 268.842 208.853 276.72C207.518 278.425 205.985 279.995 204.454 281.524L203.614 282.591L199.377 284.084C198.657 283.811 197.971 283.424 197.282 283.079C196.021 283.42 194.671 283.598 193.386 283.843C192.182 282.919 191.009 281.965 189.838 281L188.536 281.615C184.865 278.148 176.953 268.29 172.7 266.898L172.384 266.503C173.119 266.111 173.666 266.261 174.466 266.484C176.396 267.021 178.173 269.151 179.611 270.537C177.351 262.596 177.846 254.034 181.908 246.731C182.596 245.494 183.369 244.311 184.197 243.165Z" fill="#010000"/>
<path d="M203.401 259.785C204.058 259.944 204.596 260.155 205.216 260.416C205.667 261.009 206.02 261.349 205.936 262.16C205.823 263.256 205.087 264.066 204.389 264.848C203.817 264.933 203.317 264.918 202.741 264.878C202.427 264.497 202.106 264.254 202.033 263.742C201.825 262.278 202.54 260.907 203.401 259.785Z" fill="#8F8D8E"/>
<path d="M182.362 250.212C182.701 249.278 183.104 248.324 183.564 247.439C185.767 243.197 189.308 241.083 193.745 239.721C198.855 238.152 205.508 237.224 210.389 239.929C213.614 241.718 214.925 244.269 215.86 247.668C214.156 246.864 212.69 245.812 210.906 245.114C207.102 243.626 204.142 244.346 200.535 245.942C195.708 245.221 190.472 245.979 186.056 248.082C184.768 248.696 183.66 249.663 182.362 250.212Z" fill="#E2CEBE"/>
<path d="M182.362 250.212C183.66 249.663 184.767 248.696 186.056 248.082C190.471 245.979 195.708 245.221 200.535 245.942C195.134 249.844 191.912 255.226 190.825 261.789C189.718 268.483 190.925 274.71 194.944 280.232C195.668 281.225 196.474 282.155 197.282 283.08C196.021 283.42 194.671 283.598 193.386 283.843C192.182 282.919 191.009 281.965 189.838 281C187.037 278.247 184.043 275.552 182.28 271.976C178.964 265.246 179.95 257.031 182.362 250.212Z" fill="#FEFEFD"/>
<path d="M200.535 245.942C204.142 244.346 207.102 243.626 210.906 245.114C212.69 245.812 214.156 246.864 215.86 247.668C215.989 249.479 216.285 254.129 215.245 255.445C215.155 255.241 215.071 255.035 214.976 254.833C214.358 253.505 213.216 252.716 211.844 252.275C209.427 251.498 205.794 251.734 203.629 253.138C203.028 253.528 202.713 253.916 202.433 254.561C202.495 256.476 202.396 258.22 200.995 259.675C200.292 260.405 199.495 260.794 198.57 261.167C197.261 266.213 196.77 271.325 199.613 276.001C200.908 278.129 202.633 279.85 204.454 281.524L203.614 282.591L199.377 284.084C198.657 283.812 197.971 283.425 197.282 283.08C196.474 282.156 195.668 281.225 194.944 280.232C190.925 274.71 189.718 268.484 190.825 261.79C191.912 255.227 195.134 249.844 200.535 245.942Z" fill="#272727"/>
<path d="M198.57 261.167C197.236 261.021 195.867 260.774 194.777 259.938C193.923 259.284 193.347 258.311 193.252 257.231C193.139 255.964 193.615 254.736 194.468 253.808C195.339 252.86 196.568 252.302 197.86 252.304C199.738 252.307 201.157 253.291 202.433 254.561C202.495 256.476 202.396 258.22 200.995 259.675C200.293 260.405 199.495 260.794 198.57 261.167Z" fill="#FEFEFD"/>
<path d="M189.838 281C191.009 281.965 192.182 282.919 193.386 283.843C194.671 283.598 196.021 283.421 197.282 283.08C197.971 283.425 198.657 283.812 199.377 284.084L199.569 284.326L202.878 283.468L203.041 283.924L202.837 284.276C201.56 284.593 200.302 284.809 199 284.967C198.217 285.063 197.615 285.513 196.969 285.934C195.046 286.489 193.091 286.898 191.166 287.438C200.646 289.246 218.239 293.549 223.873 301.707C225.289 303.758 225.759 306.082 225.291 308.525C223.734 316.646 212.526 327.021 205.812 331.344C200.376 334.845 195.026 336.867 188.476 335.522C188.005 336.521 188.224 337.031 188.588 338.084C192.114 348.302 204.203 359.178 213.915 363.473C225.483 368.59 238.214 367.04 249.707 362.479C254.613 360.532 260.54 357.734 264.185 353.799C267.269 350.468 268.319 345.96 271.05 342.479C275.758 336.48 289.023 337.133 295.395 339.956C297.91 341.07 302.594 344.034 303.287 346.767C303.485 347.544 303.427 347.804 303.014 348.452C302.221 348.386 302.179 348.313 301.564 347.793C298.962 346.714 296.462 345.76 293.713 345.133C294.513 347.493 299.026 356.785 299.012 358.213C298.178 358.308 297.271 358.44 296.47 358.114C293.553 356.927 289.407 353.091 288.187 350.184C278.706 371.869 265.015 384.103 242.928 392.792C231.967 397.104 216.765 401.405 205.366 396.315C199.389 393.646 195.955 389.113 193.464 383.221C192.515 379.56 191.886 376.055 191.604 372.285C190.492 376.414 189.682 382.389 190.033 386.621C189.877 387.685 189.496 388.626 189.116 389.623L188.857 389.482C188.294 386.339 188.558 382.865 188.542 379.671C188.635 373.935 191.352 368.549 191.166 362.897C190.791 361.123 190.44 357.626 189.036 356.41C188.119 355.615 187.403 355.794 186.267 355.772C184.669 355.733 183.039 355.544 181.605 354.802L181.571 354.202C182.18 353.826 182.694 353.696 183.392 353.546C185.328 353.239 187.219 352.784 189.124 352.33C186.321 346.259 184.179 340.381 182.751 333.845C173.682 325.211 169.759 314.932 166.413 303.114C166.012 301.585 165.962 299.773 165.7 298.198C165.381 296.028 165.272 293.993 166.591 292.126C169.693 287.734 178.15 287.071 183.05 286.144L191.248 284.255L188.535 281.616L189.838 281Z" fill="#542F11"/>
<path d="M288.671 349.252C292.262 351.79 294.708 356.834 299.012 358.213C298.178 358.307 297.271 358.44 296.47 358.114C293.553 356.926 289.407 353.09 288.187 350.184L288.671 349.252Z" fill="#C7A18E"/>
<path d="M200.25 310.654C203.109 310.81 207.305 311.083 209.591 312.967C207.58 313.379 205.565 312.913 203.554 312.646C201.874 312.612 200.187 312.648 198.507 312.655C196.977 313.485 195.562 314.509 194.126 315.488C195.971 313.148 197.187 311.269 200.25 310.654Z" fill="#010000"/>
<path d="M176.806 291.688C176.92 291.678 177.033 291.667 177.147 291.66C187.343 291.083 204.657 296.586 212.46 303.334C205.47 302.785 198.448 301.013 191.565 299.697C186.244 298.825 180.718 297.558 175.361 297.11C174.224 297.015 173.114 296.927 172.219 297.761C170.517 299.349 172.522 310.321 172.644 312.998C170.989 308.737 169.139 304.197 168.614 299.623C168.4 297.752 168.491 295.735 169.745 294.222C171.528 292.069 174.242 292.002 176.806 291.688Z" fill="#C7A18E"/>
<path d="M184.926 334.396L188.476 335.522C188.005 336.521 188.224 337.031 188.588 338.084C192.114 348.302 204.203 359.178 213.915 363.473C225.483 368.59 238.214 367.04 249.707 362.479C254.613 360.532 260.54 357.734 264.185 353.799C267.269 350.468 268.319 345.96 271.05 342.478C275.758 336.48 289.023 337.133 295.395 339.956C297.91 341.07 302.594 344.034 303.287 346.767C303.485 347.544 303.427 347.804 303.014 348.452C302.221 348.386 302.179 348.313 301.564 347.793L301.493 347.201C301.042 346.443 300.492 345.967 299.777 345.469C294.782 341.991 284.768 340.564 278.872 341.573C276.632 341.956 273.972 342.862 272.601 344.791L272.825 345.158C275.451 345.427 278.365 344.49 281.135 344.538C281.072 344.643 281.011 344.75 280.945 344.854C273.234 357.225 256.575 364.653 242.858 367.651C229.043 370.672 214.715 368.652 202.77 360.843C192.998 354.455 187.343 345.764 184.926 334.396Z" fill="#DBB49F"/>
<path d="M254.914 367.829C264.339 364.276 274.163 358.86 280.91 351.21C282.263 349.676 282.745 346.524 284.266 345.422L284.271 345.503C285.307 345.558 286.562 346.241 287.522 346.654C288.45 346.949 288.782 347.179 289.399 347.932L289.402 348.719L288.671 349.252C287.727 349.093 287.036 348.243 286.38 347.605L285.599 347.46C284.443 349.431 283.721 351.637 282.744 353.701C281.315 356.722 279.651 359.706 277.907 362.558C271.68 372.742 258.648 382.672 247.752 387.276C241.591 391.258 233.765 392.914 226.694 394.525C219.328 396.204 211.488 396.14 204.947 391.972C197.424 387.18 194.474 378.797 194.095 370.206C193.927 366.408 194.191 362.329 193.302 358.633C193.272 358.511 193.239 358.391 193.207 358.269C199.7 364.885 209.392 369.078 218.289 371.217C220.789 371.818 224.268 372.017 226.488 373.233C227.533 373.318 229.248 373.234 230.051 373.863C229.434 374.378 228.936 374.663 228.188 374.957L228.55 375.447C236.768 372.563 245.493 371.141 253.818 368.387C258.186 370.24 262.835 371.5 267.367 372.895L267.711 372.233C266.636 370.542 257.373 368.594 254.914 367.829Z" fill="#251104"/>
<path d="M212.302 377.842C214.992 376.158 218.809 375.866 221.915 375.774L224.198 376.509C222.835 377.296 221.483 378.091 220.153 378.934C217.519 378.637 214.909 378.326 212.302 377.842Z" fill="#91373D"/>
<path d="M201.501 385.079C207.518 384.644 210.319 385.942 214.909 389.656C214.709 390.657 214.601 391.782 214.092 392.677C209.45 391.015 204.438 389.273 201.501 385.079Z" fill="#FEFEFD"/>
<path d="M212.302 377.842C214.909 378.326 217.519 378.637 220.153 378.934C217.201 382.237 216.032 385.455 214.909 389.656C210.319 385.942 207.518 384.644 201.501 385.079L200.954 384.046C200.994 383.713 201.002 383.453 201.163 383.137C202.593 380.342 209.386 378.771 212.302 377.842Z" fill="#D47269"/>
<path d="M228.55 375.447C236.768 372.564 245.493 371.141 253.818 368.387C258.186 370.241 262.835 371.5 267.367 372.896C260.336 377.43 253.767 382.147 246.197 385.81C237.442 389.762 226.261 395.107 216.418 393.541L214.092 392.677C214.601 391.782 214.709 390.657 214.909 389.656C216.032 385.455 217.201 382.237 220.153 378.934C221.483 378.091 222.835 377.296 224.198 376.509L221.915 375.774C222.554 375.802 223.301 375.876 223.931 375.765C225.103 375.56 225.852 374.142 226.488 373.233C227.533 373.318 229.248 373.234 230.051 373.863C229.434 374.378 228.936 374.663 228.188 374.957L228.55 375.447Z" fill="#D47269"/>
<path d="M226.488 373.233C227.533 373.318 229.248 373.234 230.051 373.863C229.434 374.378 228.936 374.663 228.188 374.957L228.55 375.447C227.185 376.192 225.683 376.868 224.537 377.929C220.603 380.344 218.138 383.988 217.09 388.461C216.769 389.827 216.479 391.226 216.296 392.618L216.418 393.541L214.092 392.677C214.601 391.782 214.709 390.657 214.909 389.656C216.032 385.455 217.201 382.237 220.153 378.934C221.483 378.091 222.835 377.296 224.198 376.509L221.915 375.774C222.554 375.802 223.301 375.876 223.931 375.765C225.103 375.56 225.852 374.142 226.488 373.233Z" fill="#3F1810"/>
<path d="M228.55 375.447C236.768 372.564 245.493 371.141 253.818 368.387C258.186 370.241 262.835 371.5 267.367 372.896C260.336 377.43 253.767 382.147 246.197 385.81C237.442 389.762 226.261 395.107 216.418 393.541L216.296 392.618C223.828 391.944 231.482 390.478 238.264 386.955C241.392 385.33 246.9 381.543 247.729 377.874C247.933 376.971 247.71 376.592 247.235 375.849C243.33 373.289 235.104 374.836 230.881 376.057C229.011 376.597 227.09 377.609 225.167 377.858C224.957 377.885 224.747 377.906 224.537 377.929C225.683 376.868 227.185 376.192 228.55 375.447Z" fill="#C35F61"/>
<path d="M127.143 268.557C126.235 268.539 125.302 268.539 124.398 268.436C122.814 268.255 120.969 267.934 119.935 266.607C120.055 265.949 119.98 265.935 120.482 265.399C123.537 262.141 130.354 261.977 134.52 261.804L134.182 262.366L134.479 262.877C135.405 263.084 136.083 263.058 137.005 263.087C137.078 263.09 137.149 263.114 137.221 263.128C139.121 263.057 141.03 262.717 142.913 262.464L142.959 263.637C141.958 263.823 140.997 263.781 140.317 264.632C140.242 264.725 140.206 264.843 140.151 264.949L140.912 265.119C152.138 265.002 164.072 264.877 172.633 273.348C176.487 277.161 179.747 281.847 183.05 286.143C178.15 287.071 169.693 287.734 166.591 292.126C165.272 293.993 165.381 296.028 165.7 298.198C165.962 299.773 166.012 301.585 166.413 303.113C169.759 314.932 173.682 325.211 182.751 333.845C184.179 340.381 186.321 346.259 189.124 352.33C187.219 352.784 185.328 353.239 183.392 353.546C182.694 353.696 182.18 353.826 181.571 354.201L181.605 354.802C183.039 355.544 184.669 355.733 186.268 355.772C187.403 355.794 188.119 355.615 189.036 356.41C190.44 357.626 190.791 361.123 191.166 362.897C191.352 368.549 188.635 373.935 188.542 379.671C188.558 382.865 188.294 386.339 188.857 389.482L189.116 389.623C189.496 388.626 189.877 387.685 190.033 386.621C191.085 393.977 194.178 400.682 199.879 405.586C203.819 408.975 208.644 411.38 213.535 413.061C234.864 420.389 250.981 410.109 271.777 408.594C266.229 410.105 261.06 411.81 255.813 414.175C270.708 415.669 285.801 416.293 300.757 416.843C310.386 417.196 322.765 418.236 332.154 416.353C327.381 413.682 322.575 411.108 317.728 408.575C330.531 411.593 339.003 414.967 352.595 414.395C346.803 412.844 341.469 410.904 336.284 407.865C337.375 408.031 338.467 408.19 339.563 408.323C352.09 409.852 369.717 409.436 381.429 404.784C384.607 403.522 387.232 401.842 389.909 399.738C382.039 401.316 375.912 400.277 368.442 397.369C373.89 398.372 379.408 398.584 384.806 397.141C389.223 395.96 394.087 393.456 396.366 389.339C399.894 382.97 396.774 380.822 395.393 375.737C395.361 375.619 395.343 375.498 395.318 375.377C398.713 378.609 401.171 385.219 402.648 389.635C404.226 387.741 404.862 384.01 405.154 381.598C406.413 371.099 405.082 361.769 401.487 351.847C400.641 349.509 398.635 345.929 398.646 343.502C396.914 339.982 394.96 336.634 392.713 333.419C396.386 336.222 404.423 344.579 406.269 348.64C406.37 349.715 406.626 350.4 407.113 351.359L406.757 351.661C407.755 354.51 409.097 357.033 409.946 359.985C413.322 371.715 412.445 384.961 407.159 395.999C406.408 397.566 405.691 398.963 404.334 400.096C403.341 400.345 403.313 400.341 402.372 399.939C400.677 397.849 400.032 394.084 399.286 391.532C397.082 398.371 394.346 403.203 387.806 406.584C382.855 409.144 376.943 410.418 371.453 411.136C369.226 411.427 366.181 411.397 364.137 412.25C362.563 411.947 361.008 412.246 359.434 412.454C360.03 413.515 360.764 414.607 361.237 415.722L360.174 416.165C368.838 425.536 379.178 427.475 391.575 427.98C395.699 428.148 399.842 428.111 403.969 428.065C411.329 427.499 418.707 427.332 426.079 427.019C432.341 426.753 438.61 426.237 444.88 426.586C447.214 426.717 462.454 428.213 462.727 428.165C463.266 428.07 463.287 428.02 463.693 427.783C466.772 428.102 469.98 429.292 472.864 430.381C484.067 434.616 494.615 440.977 502.201 450.383C505.404 454.355 509.087 459.804 510.296 464.812C509.39 466.59 511.062 472.836 511.338 475.053C512.04 480.688 511.99 486.671 511.994 492.353C511.995 495.059 511.26 502.168 512 504.403C512.141 504.827 512.168 504.829 512.383 505.143L512.352 505.57C511.165 520.544 505.73 535.674 507.131 550.777C507.818 558.187 511.608 564.47 513.427 571.533C514.654 576.304 514.425 581.457 514.476 586.353L514.451 586.702C513.251 587.416 511.73 588.445 510.782 589.482C506.907 591.484 503.099 593.268 498.822 594.227C496.034 594.852 492.454 595.136 489.853 596.244C483.037 595.846 473.106 592.43 466.923 593.472L466.582 594.155C464.58 594.573 462.231 594.113 460.187 594.042C456.97 593.551 454.787 592.465 451.982 590.872C451.885 590.919 451.794 590.978 451.692 591.012C450.047 591.569 446.433 590.777 444.595 590.701C436.742 590.376 428.149 594.035 424.016 600.866C422.009 604.182 420.719 608.404 420.8 612.297L420.3 614.496L419.944 614.526L419.655 613.865C419.635 613.906 419.604 613.942 419.595 613.986C419.135 616.053 418.798 618.255 417.554 620.037C415.508 622.965 410.617 624.171 407.257 624.702C400.141 625.83 392.127 625.81 384.955 625.143C381.693 624.84 378.398 624.128 375.125 624.062C370.082 623.961 365.299 624.987 360.248 623.972C356.633 623.245 353.828 621.736 350.865 619.593C349.707 624.51 348.047 628.767 344.242 632.268C335.37 640.431 320.606 642.009 309.137 641.514C305.666 641.363 302.151 640.588 298.692 640.602C296.045 640.613 293.283 641.123 290.65 641.416C286.495 641.878 282.299 642.103 278.119 641.929C273.665 641.743 269.448 640.784 265.111 639.838C258.619 638.423 251.342 637.413 246.69 632.112C242.05 626.823 242.048 618.634 242.398 612.018C240.474 612.16 238.55 612.264 236.623 612.366C229.499 623.408 226.538 633.408 212.239 636.498C201.873 638.738 192.338 636.874 183.485 631.13C177.361 627.156 172.138 622.055 167.096 616.822C159.066 607.58 150.378 595.829 147.421 583.854C146.103 578.517 146.249 572.992 149.24 568.192C152.285 563.303 157.708 560.095 163.244 558.853C172.133 556.86 180.582 559.598 188.096 564.312C192.014 551.202 191.81 537.122 193.501 523.614C194.722 513.955 194.375 505.083 193.222 495.447C192.814 495.259 192.417 495.058 192.039 494.814C188.915 492.797 187.292 488.48 186.644 484.954C184.812 474.97 188.066 465.466 193.742 457.34C189.456 458.844 183.701 460.411 179.153 459.485C178.112 459.273 177.514 458.941 176.927 458.023C176.882 457.5 176.717 456.961 176.962 456.474C178.31 453.802 183.537 450.747 185.919 448.733C196.275 439.972 202.783 428.096 207.29 415.495C198.002 410.82 192.6 405.516 188.721 395.857C179.958 392.039 171.497 386.091 163.922 380.301C139.462 361.608 119.005 334.995 114.86 303.837C113.989 304.433 112.736 305.502 111.631 305.549C110.833 305.583 110.272 305.318 109.857 304.628C108.789 302.851 109.607 299.409 109.948 297.46C111.953 285.978 117.469 275.378 127.143 268.557Z" fill="#A47360"/>
<path d="M132.385 265.781C133.429 264.914 134.209 265.026 135.51 264.99C136.965 265.026 138.739 265.27 140.151 264.949L140.912 265.119L140.954 265.343L139.762 266.28C137.293 266.274 134.831 266.111 132.385 265.781Z" fill="#FEFEFD"/>
<path d="M125.631 265.196C127.68 264.761 129.712 264.389 131.786 264.098C132.786 264.659 133.597 264.697 134.729 264.804C135.313 264.859 135.082 264.789 135.51 264.99C134.208 265.026 133.429 264.914 132.385 265.781C130.142 265.955 127.835 265.563 125.631 265.196Z" fill="#E2CEBE"/>
<path d="M137.221 263.128C139.121 263.057 141.029 262.717 142.912 262.464L142.959 263.637C141.958 263.823 140.997 263.781 140.316 264.632C140.242 264.725 140.206 264.843 140.151 264.949C138.739 265.27 136.965 265.026 135.51 264.991C135.082 264.789 135.313 264.859 134.729 264.804C133.597 264.697 132.786 264.659 131.786 264.098C133.552 263.593 135.557 263.827 137.221 263.128Z" fill="#ECB37E"/>
<path d="M119.208 300.848C120.819 303.788 121.202 308.096 122.091 311.378C123.18 315.403 124.461 319.382 125.93 323.285C127.618 327.769 129.764 332.103 131.964 336.354C132.972 338.302 134.733 340.82 135.324 342.853C135.438 343.245 135.414 343.344 135.406 343.703C128.769 335.342 123.701 323.931 120.851 313.782C120.088 311.066 117.73 303.465 119.208 300.848Z" fill="#FEFEFD"/>
<path d="M115.747 298.049C115.206 298.406 114.996 298.51 114.34 298.658C113.342 296.243 116.13 289.92 117.108 287.409C120.804 277.924 127.693 271.508 136.884 267.552L137.655 268.155C137.653 268.412 137.7 268.682 137.619 268.927C128.346 273.779 120.154 282.296 116.942 292.407C116.36 294.238 115.895 296.13 115.747 298.049Z" fill="#FEFEFD"/>
<path d="M405.154 381.598C406.413 371.099 405.082 361.769 401.487 351.846C400.641 349.509 398.635 345.929 398.646 343.502C406.038 355.383 409.635 371.134 406.387 384.905C405.84 387.227 405.172 390.881 403.635 392.753C403.104 391.806 402.914 390.68 402.648 389.635C404.226 387.741 404.862 384.01 405.154 381.598Z" fill="#FEFEFD"/>
<path d="M202.912 453.004L203.451 453.507C203.161 456.094 198.749 461.732 197.362 464.476C193.278 472.56 192.799 480.234 192.727 489.047C192.721 489.714 192.752 489.881 192.441 490.467C190.528 486.259 190.304 480.763 190.79 476.229C191.743 467.326 195.897 458.672 202.912 453.004Z" fill="#FEFEFD"/>
<path d="M193.222 495.447C193.44 495.308 193.692 495.154 193.886 494.99C194.473 494.493 194.902 494.05 195.573 493.645L195.945 494.57L196.581 494.863C198.542 500.356 199.887 506.049 201.818 511.539C203.627 516.683 206.009 521.479 208.57 526.277C211.367 531.52 215.5 536.038 218.108 541.286C218.489 546.031 221.205 560.457 219.981 563.822L219.935 563.956C218.071 562.732 216.3 561.328 214.639 559.841C202.949 549.366 200.007 538.63 199.138 523.452L198.266 521.849C196.867 523.266 198.053 525.895 196.797 527.672L196.632 526.059C195.979 525.93 195.06 525.844 194.469 525.559C193.592 525.137 193.673 524.464 193.501 523.614C194.722 513.955 194.375 505.082 193.222 495.447Z" fill="#DD8F45"/>
<path d="M197.48 516.522C197.5 516.421 197.523 516.319 197.542 516.218C197.981 513.893 197.872 511.394 197.906 509.03L198.213 509.104C199.113 513.817 198.85 518.677 199.138 523.452L198.266 521.849C196.867 523.266 198.053 525.895 196.797 527.672L196.632 526.059C197.006 522.875 197.319 519.725 197.48 516.522Z" fill="#F0CCAA"/>
<path d="M193.222 495.447C193.44 495.308 193.692 495.154 193.886 494.99C194.473 494.493 194.902 494.05 195.573 493.645L195.945 494.57C196.76 502.033 197.678 508.945 197.48 516.522C197.319 519.725 197.006 522.875 196.632 526.059C195.979 525.93 195.06 525.844 194.469 525.559C193.592 525.137 193.673 524.464 193.501 523.614C194.722 513.955 194.375 505.082 193.222 495.447Z" fill="#542F11"/>
<path d="M140.912 265.119C152.138 265.002 164.072 264.877 172.633 273.348C176.487 277.161 179.747 281.847 183.05 286.143C178.15 287.071 169.693 287.734 166.591 292.126C165.272 293.993 165.381 296.028 165.7 298.198C165.962 299.773 166.012 301.585 166.413 303.113C169.759 314.932 173.682 325.211 182.751 333.845C184.179 340.381 186.321 346.259 189.124 352.33C187.219 352.784 185.328 353.239 183.392 353.546C182.694 353.696 182.18 353.826 181.571 354.201L181.605 354.802C183.039 355.544 184.669 355.733 186.268 355.772C187.403 355.794 188.119 355.615 189.036 356.41C190.44 357.626 190.791 361.123 191.166 362.897C191.352 368.549 188.635 373.935 188.542 379.671C187.716 382.978 188.237 387.191 188.33 390.604C183.544 387.003 177.837 384.265 172.862 380.816C160.898 372.523 150.292 362.555 141.007 351.365C139.081 349.043 136.656 346.458 135.406 343.703C135.414 343.344 135.438 343.245 135.324 342.853C134.733 340.82 132.972 338.302 131.964 336.354C129.763 332.103 127.618 327.769 125.93 323.285C124.461 319.382 123.18 315.403 122.091 311.378C121.202 308.096 120.819 303.788 119.208 300.848C122.395 299.17 125.656 298.166 129.003 296.888C129.643 296.644 129.795 296.735 130.094 296.075C124.118 295.381 121.408 295.276 115.747 298.048C115.895 296.13 116.361 294.238 116.942 292.407C120.154 282.296 128.346 273.779 137.619 268.927C137.7 268.682 137.653 268.412 137.655 268.155L136.884 267.552C137.877 267.174 138.813 266.757 139.762 266.28L140.954 265.344L140.912 265.119Z" fill="#E2CEBE"/>
<path d="M140.954 265.344L142.485 265.542L142.824 266.005C142.089 267.47 139.123 268.318 137.619 268.927C137.7 268.682 137.653 268.412 137.655 268.155L136.884 267.552C137.877 267.174 138.813 266.757 139.762 266.28L140.954 265.344Z" fill="#FEFEFD"/>
<path d="M178.596 356.493C177.916 356.555 177.212 356.622 176.529 356.571C171.211 356.169 165.8 350.88 162.8 346.872C157.103 339.258 154.245 330.431 155.653 320.92C156.016 318.468 156.616 316.071 158.672 314.527C156.923 326.562 157.94 336.509 165.39 346.504C168.983 351.324 172.998 354.375 178.596 356.493Z" fill="#F0CCAA"/>
<path d="M165.7 298.198C165.962 299.772 166.012 301.585 166.413 303.113C161.082 311.836 158.994 322.289 161.412 332.333C163.165 339.615 168.296 347.68 174.803 351.583C178.016 353.509 179.986 353.075 183.392 353.546C182.694 353.696 182.18 353.826 181.571 354.201L181.605 354.802C183.039 355.544 184.669 355.733 186.268 355.772C183.668 356.275 181.246 356.519 178.596 356.493C172.998 354.374 168.983 351.324 165.39 346.504C157.94 336.509 156.923 326.561 158.672 314.527C159.282 312.168 159.949 309.937 160.955 307.714C162.141 305.092 165.615 300.896 165.7 298.198Z" fill="#99592F"/>
<path d="M166.413 303.114C169.759 314.932 173.682 325.211 182.751 333.845C184.179 340.381 186.321 346.259 189.124 352.33C187.219 352.784 185.328 353.239 183.392 353.546C179.986 353.075 178.016 353.51 174.803 351.583C168.296 347.68 163.165 339.615 161.412 332.333C158.994 322.289 161.082 311.836 166.413 303.114Z" fill="#E2CEBE"/>
<path d="M130.094 296.075L134.118 296.409C134.217 299.128 127.184 306.135 125.31 308.348C128.549 306.939 131.708 305.78 135.094 304.789C132.629 307.18 129.754 309.333 128.141 312.431L128.35 312.724C129.894 311.959 130.949 310.216 132.097 308.945C130.697 313.619 130.149 318.358 129.607 323.187C131.216 319.678 133.066 316.201 135.592 313.254C135.319 317.965 134.438 323.766 135.992 328.311L136.358 328.633C136.906 328.146 137.249 327.628 137.648 327.017C138.775 328.329 139.172 331.716 139.889 333.494C141.394 337.229 143.533 340.665 145.807 343.974C153.203 354.737 162.652 363.944 173.038 371.806C176.671 374.557 180.705 376.93 184.203 379.825C184.713 374.276 186.646 368.567 190.539 364.404C190.979 363.933 191.028 363.506 191.166 362.897C191.352 368.549 188.635 373.935 188.542 379.671C187.716 382.978 188.237 387.191 188.33 390.604C183.544 387.003 177.837 384.265 172.862 380.816C160.898 372.523 150.292 362.555 141.007 351.365C139.081 349.043 136.656 346.458 135.406 343.703C135.414 343.344 135.438 343.245 135.324 342.853C134.733 340.82 132.972 338.302 131.964 336.354C129.764 332.103 127.618 327.769 125.93 323.285C124.461 319.382 123.18 315.404 122.091 311.378C121.202 308.096 120.819 303.788 119.208 300.848C122.395 299.17 125.656 298.166 129.003 296.888C129.643 296.644 129.795 296.735 130.094 296.075Z" fill="#DBB49F"/>
<path d="M183.555 455.691C193.546 448.818 201.35 438.6 206.544 427.702C207.591 425.506 209.542 418.294 211.04 417.079C211.45 416.746 212.136 417.09 212.611 417.192C219.617 420.545 232.582 421.125 240.158 419.734C243.316 419.154 246.464 417.773 249.697 417.789C257.083 417.825 264.712 419.295 272.127 419.768C279.17 420.217 286.236 420.492 293.288 420.788C296.797 420.934 300.666 420.741 304.103 421.428C298.396 423.854 293.914 425.928 290.198 431.104C293.474 431.203 296.739 431.324 300.008 431.55C294.097 435.054 287.531 438.395 285.185 445.335C285.13 447.012 285.065 448.689 285.08 450.368C285.254 459.309 286.793 466.335 290.133 474.646C280.159 487.495 279.663 501.308 281.688 516.962C282.158 520.599 283.377 524.135 283.741 527.775C283.656 528.676 283.778 529.936 283.076 530.605C282.91 530.762 282.567 530.934 282.361 531.046C277.656 516.479 276.507 500.858 281.58 486.237C282.887 482.472 284.858 479.351 286.176 475.87L285.585 476.266C283.372 479.576 280.936 482.875 279.158 486.444C273.43 497.935 273.317 512.212 275.743 524.571C277.256 532.281 279.658 539.541 284.332 545.902C284.342 557.687 284.26 569.459 283.176 581.207C271.159 577.661 258.92 571.05 251.277 560.821C243.867 551.606 236.521 540.606 233.716 529.055C233.916 535.519 234.647 541.995 235.2 548.437C232.66 545.335 230.63 541.859 228.787 538.309C223.253 527.653 222.096 518.757 221.939 506.96C218.53 517.734 219.496 526.673 222.198 537.432C218.775 534.163 216.214 530.3 213.787 526.261C204.788 511.288 200.921 494.666 200.49 477.364C198.936 480.887 195.697 488.905 193.165 491.429L192.727 491.377L192.441 490.467C192.752 489.881 192.721 489.714 192.727 489.047C192.799 480.234 193.278 472.56 197.362 464.475C198.749 461.731 203.161 456.094 203.451 453.507L202.912 453.004C200.175 452.535 198.278 454.022 195.784 454.879C196.186 453.965 197.127 453.411 197.896 452.814C193.125 453.937 188.415 455.022 183.555 455.691Z" fill="#E2CEBE"/>
<path d="M274.102 558.218C274.148 550.617 274.37 542.959 273.823 535.373C272.643 519.025 267.887 501.855 276.25 486.539C278.049 483.244 281.893 477.35 285.585 476.267C283.372 479.576 280.936 482.875 279.158 486.444C273.43 497.936 273.317 512.212 275.743 524.571C277.256 532.281 279.658 539.541 284.332 545.902C284.342 557.687 284.26 569.459 283.176 581.207C271.159 577.661 258.92 571.05 251.277 560.821C251.448 560.514 251.49 560.48 251.58 560.083C252.792 554.742 247.951 543.573 245.583 538.921C250.634 544.895 257.426 551.155 263.732 555.707C262.265 552.557 260.67 549.422 259.631 546.1C263.446 550.804 266.244 556.441 269.942 561.306C268.647 556.46 266.489 551.819 264.654 547.157C267.579 551.057 270.807 554.634 274.102 558.218Z" fill="#DBB49F"/>
<path d="M212.611 417.192C219.617 420.545 232.582 421.125 240.158 419.734C243.316 419.154 246.464 417.773 249.697 417.789C257.083 417.825 264.712 419.295 272.127 419.768C279.17 420.218 286.236 420.493 293.288 420.788C296.797 420.935 300.666 420.741 304.103 421.428C298.396 423.854 293.914 425.928 290.198 431.104C293.474 431.203 296.739 431.324 300.008 431.55C294.097 435.055 287.531 438.395 285.185 445.335C285.13 447.013 285.065 448.689 285.08 450.368C268.015 453.842 245.401 458.753 234.148 473.099C233.977 468.954 234.07 464.771 234.065 460.621C232.564 464.309 230.997 467.95 229.355 471.576L229.235 455.766C227.292 458.516 225.618 461.323 223.969 464.253C224.485 460.434 225.43 456.867 226.181 453.117C224.452 454.003 223.56 457.888 221.691 459.159C220.553 457.06 221.707 448.439 222.017 445.875C220.387 448.201 218.652 450.451 216.933 452.713L219.52 441.667C217.753 443.96 215.97 446.112 213.792 448.025C214.658 445.132 215.651 442.27 216.594 439.401C214.191 441.457 212.119 443.958 209.914 446.23C211.436 442.288 213.804 438.802 215.077 434.728C213.425 437.198 211.87 439.68 209.745 441.777C210.897 439.519 212.001 437.266 212.995 434.933C211.053 436.863 209.503 440.759 207.381 442.09C207.283 439.61 211.03 435.025 212.164 432.595L212.377 432.134C209.767 434.186 207.707 437.055 205.317 439.391C205.7 438.702 206.14 438.055 206.564 437.391C207.171 436.441 209.001 433.731 208.764 432.647C207.189 434.408 205.257 436.377 203.994 438.349C203.872 438.54 203.799 438.761 203.665 438.943C203.344 439.382 202.948 439.566 202.45 439.703C207.025 433.536 211.673 424.898 212.611 417.192Z" fill="#DBB49F"/>
<path d="M304.103 421.428C309.155 421.163 314.206 421.448 319.261 421.364C323.149 421.298 327.071 420.934 330.95 420.65C333.848 420.437 336.596 419.132 339.396 418.975C343.503 418.745 348.708 420.228 352.609 418.964C354.845 418.239 356.966 417.492 359.012 416.318C359.605 415.977 359.544 416.07 360.174 416.165C368.838 425.536 379.178 427.475 391.575 427.98C395.699 428.148 399.842 428.111 403.969 428.065C411.329 427.499 418.707 427.332 426.079 427.019C432.341 426.753 438.61 426.236 444.88 426.586C447.214 426.716 462.454 428.213 462.727 428.165C463.266 428.07 463.287 428.02 463.693 427.783C466.772 428.102 469.98 429.291 472.864 430.381C484.067 434.616 494.615 440.977 502.201 450.383C505.404 454.355 509.087 459.804 510.296 464.812C509.39 466.589 511.062 472.836 511.338 475.053C512.04 480.688 511.99 486.671 511.994 492.353C511.995 495.059 511.26 502.168 512 504.403C512.141 504.826 512.168 504.829 512.383 505.143L512.352 505.57C511.165 520.544 505.73 535.673 507.131 550.777C507.818 558.187 511.608 564.47 513.427 571.533C514.654 576.303 514.425 581.457 514.476 586.352L514.451 586.702C513.251 587.416 511.73 588.445 510.782 589.482C506.907 591.483 503.099 593.268 498.822 594.227C496.034 594.851 492.454 595.136 489.853 596.243C483.037 595.846 473.106 592.43 466.923 593.472L466.582 594.155C464.58 594.572 462.231 594.113 460.187 594.041C456.97 593.551 454.787 592.465 451.982 590.872C448.503 588.65 445.335 586.033 442.223 583.335C441.251 581.993 440.037 580.771 438.722 579.765C436.716 577.615 434.799 575.465 433.009 573.13C430.405 570.149 428.612 566.541 426.748 563.076C422.249 571.82 414.897 577.627 405.549 580.615C395.211 583.917 383.309 584.028 373.524 578.903C371.69 577.943 370.018 576.694 368.329 575.505C367.226 574.998 366.439 574.232 365.547 573.423L366.312 565.67C365.834 565.478 365.664 565.282 365.307 564.924C364.062 562.139 363.891 558.412 362.882 555.423C362.863 557.518 362.918 559.616 362.504 561.677C362.265 566.301 361.265 569.891 359.513 574.146L358.853 576.134C357.572 580.046 355.869 584.135 355.543 588.268C353.042 588.505 350.587 588.674 348.074 588.674C346.623 588.641 345.163 588.686 343.71 588.698C336.638 587.967 330.422 586.211 324.188 582.728C311.771 575.79 300.704 563.934 294.705 551.029C293.003 547.366 291.862 543.578 290.756 539.708C290.194 535.203 289.895 519.887 288.464 517.324C288.282 516.172 288.134 515.033 288.041 513.871C286.411 519.695 285.424 525.463 284.404 531.414L283.741 527.775C283.377 524.135 282.158 520.599 281.688 516.962C279.663 501.308 280.159 487.495 290.133 474.646C286.793 466.335 285.254 459.309 285.08 450.368C285.065 448.689 285.13 447.012 285.185 445.335C287.531 438.395 294.097 435.054 300.008 431.55C296.739 431.324 293.474 431.203 290.198 431.104C293.914 425.928 298.396 423.854 304.103 421.428Z" fill="#DD8F45"/>
<path d="M446.196 433.61C448.535 433.195 455.778 433.148 457.892 434.118C458.375 434.341 458.226 434.33 458.414 434.918L458.027 435.417C454.793 435.205 451.563 434.971 448.321 434.93C443.928 435.528 439.593 436.122 435.222 436.888C438.832 435.165 442.21 434.077 446.196 433.61Z" fill="#ECB37E"/>
<path d="M439.075 487.41C440.704 484.307 443.45 480.561 445.834 478.003C434.08 499.212 422.97 530.396 429.969 554.463C431.972 561.348 435.447 567.057 439.637 572.787C437.52 572.464 435.032 572.243 433.009 573.13C430.405 570.149 428.612 566.542 426.748 563.076C418.722 540.952 423.219 521.966 432.497 501.114C434.503 496.606 437.2 492.285 438.965 487.708C439.003 487.609 439.039 487.51 439.075 487.41Z" fill="#99592F"/>
<path d="M285.407 446.787C309.956 442.858 333.498 430.178 356.662 446.735C365.064 452.74 363.214 457.092 375.612 460.418C375.259 460.508 374.958 460.679 374.632 460.838C375.639 461.903 378.574 462.475 380.015 463.16L380.394 463.343C375.458 463.336 371.425 462.215 366.817 460.492C367.9 462.686 369.549 465.925 369.301 468.385C369.234 469.054 369.336 468.809 368.826 469.251C368.65 469.181 368.432 469.173 368.297 469.04C367.248 468.007 365.662 462.143 362.046 459.251C361.964 459.185 361.878 459.124 361.795 459.06C364.042 463.824 365.846 467.305 365.609 472.752C361.731 465.847 361.302 456.677 355.551 450.915C352.186 447.544 347.327 445.739 342.817 444.514C327.15 440.264 312.485 444.76 297.191 448.058C293.551 448.843 289.361 450.121 285.649 450.087C285.257 449.052 285.395 447.878 285.407 446.787Z" fill="#D2823C"/>
<path d="M304.103 421.428C309.155 421.163 314.206 421.448 319.261 421.364C323.149 421.298 327.071 420.934 330.95 420.65C333.848 420.437 336.596 419.132 339.396 418.975C343.503 418.745 348.708 420.228 352.609 418.964C354.845 418.239 356.966 417.492 359.012 416.318C359.605 415.977 359.544 416.07 360.174 416.165C368.838 425.536 379.178 427.475 391.575 427.98C395.699 428.148 399.842 428.111 403.969 428.065C406.227 431.175 415.521 431.329 419.282 432.591C415.852 432.928 412.311 433.103 408.973 433.986C412.411 434.259 419.015 434.291 421.276 437.265C422.021 438.245 422.068 439.466 421.754 440.606C420.14 446.466 411.273 453.292 406.125 456.027C397.744 460.478 384.897 463.123 375.612 460.418C363.214 457.092 365.064 452.74 356.662 446.735C333.498 430.178 309.956 442.857 285.407 446.786L285.185 445.335C287.531 438.395 294.097 435.054 300.008 431.55C296.739 431.324 293.474 431.203 290.198 431.104C293.914 425.928 298.396 423.854 304.103 421.428Z" fill="#CA7A38"/>
<path d="M369.43 521.786C369.714 521.351 369.635 521.522 369.81 521.084C370.961 518.201 372.11 514.891 374.368 512.676C378.81 508.319 388.481 510.535 394.159 510.609C404.93 510.747 416.27 508.757 425.025 502.113C427.465 500.261 429.652 497.959 431.851 495.828L432.144 496.575C433.999 493.534 435.957 489.763 438.827 487.59C438.908 487.528 438.993 487.47 439.075 487.41C439.039 487.51 439.003 487.609 438.965 487.708C437.2 492.285 434.503 496.606 432.497 501.114C423.219 521.966 418.722 540.952 426.748 563.076C422.249 571.82 414.897 577.628 405.549 580.615C395.211 583.918 383.309 584.028 373.524 578.903C371.69 577.943 370.018 576.694 368.329 575.505C369.41 575.142 370.56 574.789 371.574 574.27C373.945 573.055 375.555 569.962 376.404 567.557C379.9 557.652 378.228 544.283 374.967 534.534C373.501 530.15 371.399 525.96 369.43 521.786Z" fill="#CA7A38"/>
</g>
<defs>
<linearGradient id="paint0_linear_1299_174" x1="83.183" y1="59.756" x2="434.928" y2="462.43" gradientUnits="userSpaceOnUse">
<stop stop-color="#FEE4D9"/>
<stop offset="1" stop-color="#C8704A"/>
</linearGradient>
<linearGradient id="paint1_linear_1299_174" x1="307.955" y1="248.921" x2="299.303" y2="273.24" gradientUnits="userSpaceOnUse">
<stop/>
<stop offset="1" stop-color="#2F0C02"/>
</linearGradient>
<linearGradient id="paint2_linear_1299_174" x1="200.621" y1="157.382" x2="193.839" y2="157.164" gradientUnits="userSpaceOnUse">
<stop stop-color="#9F5C4B"/>
<stop offset="1" stop-color="#AA735B"/>
</linearGradient>
<linearGradient id="paint3_linear_1299_174" x1="209.794" y1="288.042" x2="215.378" y2="280.116" gradientUnits="userSpaceOnUse">
<stop stop-color="#774336"/>
<stop offset="1" stop-color="#966E58"/>
</linearGradient>
</defs>
</svg>
