<svg xmlns="http://www.w3.org/2000/svg" xmlns:xlink="http://www.w3.org/1999/xlink" fill="none" version="1.1" width="100" height="100.00000762939453" viewBox="0 0 100 100.00000762939453"><defs><clipPath id="master_svg0_8_791"><rect x="0" y="0" width="100" height="100.00000762939453" rx="0"/></clipPath></defs><g clip-path="url(#master_svg0_8_791)"><g><path d="M86.1867,27.25957L86.1878,27.2594Q86.2903,27.2428,86.3883,27.20849Q86.4863,27.17418,86.5768,27.12321Q86.6672,27.07224,86.7474,27.00619Q86.8275,26.940146,86.8948,26.861072Q86.9621,26.781998,87.0145,26.692346Q87.0669,26.602695,87.1027,26.505244Q87.1386,26.407794,87.1568,26.305565Q87.175,26.203336,87.175,26.0994984Q87.175,26.0417744,87.1693,25.9843283Q87.1637,25.9268822,87.1524,25.870267Q87.1412,25.813652,87.1244,25.758414Q87.1076,25.703175,87.0855,25.649845Q87.0635,25.596515,87.0362,25.545607Q87.009,25.494699,86.977,25.446703Q86.9449,25.398708,86.9083,25.354086Q86.8717,25.309465,86.8308,25.268648Q86.79,25.227831,86.7454,25.191211Q86.7008,25.154591,86.6528,25.122522Q86.6048,25.090452,86.5539,25.063241Q86.503,25.03603,86.4496,25.01394Q86.3963,24.99185,86.3411,24.97509Q86.2859,24.95834,86.2292,24.94708Q86.1726,24.93581,86.1152,24.93016Q86.0577,24.924500000000002,86,24.924500000000002Q85.9055,24.924500000000002,85.8122,24.9396L85.8111,24.93977L85.2108,25.03696L84.7271,25.013464L83.8726,24.79907L82.6317,25.020046L81.7561,25.664981L81.2002,25.9620057L80.6844,26.128999L80.1918,26.188807L79.7064,26.149512L79.1971,26.001108L78.6483,25.730122L77.63470000000001,25.016301L75.88640000000001,25.214417L74.8828,26.912353L74.2022,27.92596L73.5361,28.77786L72.8904,29.473L72.2724,30.00826L71.6874,30.39658L71.1462,30.64627L70.6425,30.772660000000002L70.15870000000001,30.79616L69.66720000000001,30.71658L69.1406,30.52478L68.577,30.20542L67.9745,29.73724L67.34020000000001,29.11596L66.68260000000001,28.33344L66.0078,27.39406L65.1943,26.0901777L62.9227,24.32499L61.73,28.61144L61.0117,31.05304L60.295,33.33242L59.5829,35.45879L58.8694,37.4395L58.1578,39.2657L57.4491,40.9464L56.7441,42.4643L56.0437,43.8363L55.3511,45.0473L54.6666,46.1L53.9962,47.0009L53.344,47.734700000000004L52.7156,48.3197L52.1253,48.7449L51.5732,49.0265L51.0566,49.1854L50.447,49.2495L49.6105,49.3375L48.6809,49.6235L47.7869,50.0794L46.9311,50.6959L46.1134,51.4571L45.319500000000005,52.3504L44.5437,53.392700000000005L43.7822,54.564L43.0291,55.880700000000004L42.2829,57.3363L41.5415,58.9388L40.8043,60.6871L40.069900000000004,62.5716L39.3371,64.606L38.6098,66.7783L37.8801,69.09909999999999L37.1507,71.5781L37.021100000000004,72.0437L36.314,71.0592L35.5255,70.12100000000001L34.7137,69.32589999999999L33.870000000000005,68.6703L32.9875,68.1703L32.068,67.83529999999999L31.1134,67.6808L30.1511,67.72749999999999L29.2125,67.963L28.304000000000002,68.3749L27.4401,68.95519999999999L26.6145,69.6703L25.8141,70.5321L25.034100000000002,71.5296L24.26848,72.6699L23.929090000000002,73.244L23.695610000000002,73.0796L22.79831,72.6366L21.86146,72.36359999999999L20.90079,72.2858L19.94725,72.4016L19.01688,72.7028L18.12673,73.17840000000001L17.55616,73.5986L17.35096,73.6352L16.75924,73.4867L15.796901,73.44L14.376146,73.67L13.96239,74.4487Q13.825,74.7072,13.825,75Q13.825,75.0577,13.83066,75.1152Q13.83632,75.1726,13.84758,75.22919999999999Q13.85884,75.2858,13.8756,75.3411Q13.89235,75.3963,13.914439999999999,75.4496Q13.93653,75.503,13.96374,75.5539Q13.99095,75.6048,14.023023,75.6528Q14.055093,75.7008,14.091713,75.74539999999999Q14.128332,75.78999999999999,14.16915,75.83080000000001Q14.209967,75.8717,14.254588,75.9083Q14.299209,75.94489999999999,14.347205,75.977Q14.395201,76.009,14.446109,76.0363Q14.497017,76.0635,14.550347,76.0856Q14.603677,76.10759999999999,14.658916,76.12440000000001Q14.714154,76.1412,14.770769,76.1524Q14.827384,76.1637,14.884830000000001,76.16929999999999Q14.942276,76.175,15,76.175Q15.119037,76.175,15.235655,76.1511Q15.352273,76.12729999999999,15.461734,76.0805Q15.571194,76.03370000000001,15.669049,75.9659Q15.766905,75.8981,15.849178,75.8121L15.929117,75.7992L16.41291,75.8227L17.267310000000002,76.03710000000001L18.50823,75.8161L19.3838,75.1711L19.93975,74.8741L20.45551,74.7071L20.94809,74.6473L21.43355,74.6866L21.94283,74.83500000000001L22.49164,75.106L23.50526,75.8198L25.253500000000003,75.6217L26.2571,73.9238L26.9377,72.9102L27.6038,72.0582L28.249499999999998,71.3631L28.869999999999997,70.8257L29.4523,70.4345L29.9899,70.1908L30.4974,70.0635L30.9812,70.03999999999999L31.4728,70.1195L31.9993,70.3113L32.563,70.63069999999999L33.165400000000005,71.0989L33.7997,71.7201L34.4574,72.5027L35.1321,73.44210000000001L35.9457,74.7459L38.2172,76.5111L39.4052,72.2413L40.1219,69.8039L40.838300000000004,67.5244L41.5571,65.37729999999999L42.2705,63.3966L42.9822,61.5704L43.691199999999995,59.889L44.3958,58.3661L45.0958,57.0006L45.788799999999995,55.788799999999995L46.4734,54.7361L47.1438,53.8352L47.796,53.1014L48.4244,52.5165L49.0147,52.0912L49.5668,51.8096L50.0833,51.650800000000004L50.6929,51.586600000000004L51.5295,51.498599999999996L52.459,51.2127L53.353,50.756699999999995L54.2089,50.1402L55.0266,49.379000000000005L55.8205,48.4857L56.5962,47.4434L57.3578,46.272099999999995L58.1113,44.9546L58.857,43.4939L59.5982,41.8981L60.3357,40.149L61.0701,38.2645L61.8028,36.2301L62.5368,34.03714L63.2662,31.71618L63.994,29.2414L64.1189,28.79249L64.826,29.77694L65.61449999999999,30.715130000000002L66.4263,31.51026L67.2699,32.16582L68.1524,32.66586L69.072,33.00081L70.0265,33.15535L70.9889,33.10861L71.9313,32.87213L72.83619999999999,32.454589999999996L73.6973,31.88305L74.52539999999999,31.16581L75.32589999999999,30.30406L76.10589999999999,29.30649L76.8714,28.166249999999998L77.2108,27.59208L77.4443,27.7565L78.3416,28.199559999999998L79.2785,28.47256L80.2391,28.55032L81.1927,28.43455L82.123,28.13331L83.0132,27.65776L83.5838,27.23748L83.789,27.20093L84.3807,27.34941L85.343,27.39615L86.1867,27.25957Z" fill-rule="evenodd" stroke="currentColor" stroke-width="3" fill-opacity="1"/></g></g></svg>