<svg xmlns="http://www.w3.org/2000/svg" xmlns:xlink="http://www.w3.org/1999/xlink" fill="none" version="1.1" width="100" height="100.00000762939453" viewBox="0 0 100 100.00000762939453"><defs><clipPath id="master_svg0_8_196"><rect x="0" y="0" width="100" height="100.00000762939453" rx="0"/></clipPath></defs><g clip-path="url(#master_svg0_8_196)"><g><path d="M87.1659,19.146332Q87.175,19.0734521,87.175,19Q87.175,18.942276,87.1693,18.88483Q87.1637,18.827384,87.1524,18.770769Q87.1412,18.714154,87.1244,18.658916Q87.1076,18.603677,87.0855,18.550347Q87.0635,18.497017,87.0362,18.446109Q87.009,18.395201,86.977,18.347205Q86.9449,18.299209,86.9083,18.254588Q86.8717,18.209967,86.8308,18.16915Q86.79,18.128332,86.7454,18.091713Q86.7008,18.055093,86.6528,18.023023Q86.6048,17.99095,86.5539,17.96374Q86.503,17.93653,86.4496,17.91444Q86.3963,17.89235,86.3411,17.8756Q86.2859,17.85884,86.2292,17.84758Q86.1726,17.83632,86.1152,17.83066Q86.0577,17.825,86,17.825Q85.8935,17.825,85.7888,17.84414Q85.684,17.86328,85.5844,17.90094Q85.4848,17.93859,85.3936,17.99354Q85.3024,18.048485,85.2226,18.118931Q85.1428,18.189377,85.0769,18.273027Q85.011,18.356677,84.9612,18.450807Q84.9115,18.544936,84.8794,18.646478Q84.8474,18.748021,84.8341,18.853668L84.8341,18.853911L84.1111,24.6144L83.3855,31.4134L82.6614,38.784800000000004L81.9381,46.3243L81.2153,53.6655L80.4931,60.5106L79.7717,66.5951L79.0546,71.7334L78.34100000000001,75.8214L77.64240000000001,78.76820000000001L77.0069,80.4935L76.9423,80.5764L76.8697,80.4925L76.241,79.1716L75.5476,77.22200000000001L74.83670000000001,74.8665L74.1171,72.2735L73.39580000000001,69.6157L72.6708,67.0087L71.9359,64.5496L71.197,62.3464L70.44460000000001,60.4374L69.6657,58.8639L68.8295,57.6139L67.8691,56.6904L66.72630000000001,56.1733L65.5171,56.1831L64.4479,56.6237L63.5396,57.2989L62.7226,58.1109L61.9523,59.0135L61.214,59.9561L60.4843,60.9052L59.7831,61.7946L59.0939,62.6076L58.426,63.3147L57.7886,63.8863L57.1812,64.3183L56.6092,64.6233L56.07,64.8063L55.5418,64.8917L54.9981,64.88730000000001L54.4176,64.80279999999999L53.8068,64.6449L53.1601,64.41499999999999L52.4823,64.1357L51.7775,63.8167L51.0616,63.487L50.3241,63.1591L49.5563,62.8363L48.7823,62.5486L48.0016,62.3025L47.2094,62.0977L46.409800000000004,61.9491L45.6125,61.8525L44.8187,61.8076L44.0292,61.8076L43.2542,61.8514L42.4889,61.9194L41.742599999999996,62.0159L41.0011,62.1236L40.2688,62.236L39.5275,62.3616L38.8227,62.4697L38.1135,62.5786L37.4042,62.6703L36.713899999999995,62.7482L36.0188,62.81L35.324,62.8549L34.6152,62.8836L33.925399999999996,62.9001L33.2308,62.9001L32.5219,62.8829L31.8083,62.8598L31.0948,62.831L30.3906,62.791L29.658099999999997,62.7554L28.9539,62.7098L28.2214,62.6683L27.4889,62.6327L26.7658,62.5977L26.0333,62.5681L25.300800000000002,62.5443L24.55874,62.5322L23.83567,62.5205L23.10313,62.5146L22.37057,62.5145L21.63801,62.5204L20.91495,62.5262L20.1824,62.538L19.45933,62.5497L18.72679,62.5674L18.01321,62.5789L17.28066,62.5967L16.56709,62.6081L15.844024,62.6198L15.203779,62.6302L15.146029,62.6229Q15.0732985,62.6138,15,62.6138Q14.942276,62.6138,14.884830000000001,62.6195Q14.827384,62.6252,14.770769,62.6364Q14.714154,62.6477,14.658916,62.6644Q14.603677,62.6812,14.550347,62.7033Q14.497017,62.7254,14.446109,62.7526Q14.395201,62.7798,14.347205,62.8118Q14.299209,62.8439,14.254588,62.8805Q14.209967,62.9172,14.16915,62.958Q14.128332,62.9988,14.091713,63.0434Q14.055093,63.088,14.023023,63.136Q13.99095,63.184,13.96374,63.2349Q13.93653,63.2859,13.914439999999999,63.3392Q13.89235,63.3925,13.8756,63.4478Q13.85884,63.503,13.84758,63.5596Q13.83632,63.6162,13.83066,63.6737Q13.825,63.7311,13.825,63.7888Q13.825,63.8953,13.844149999999999,64.0001Q13.86329,64.1048,13.90096,64.2045Q13.93863,64.3041,13.9936,64.39529999999999Q14.048563,64.4865,14.119032,64.5663Q14.189501,64.6462,14.273177,64.71209999999999Q14.356853,64.7779,14.45101,64.8277Q14.545166,64.8774,14.646734,64.90950000000001Q14.748302,64.94149999999999,14.853971,64.9547L15.07611,64.9825L15.881995,64.9695L16.60505,64.95779999999999L17.33761,64.946L18.05118,64.9286L18.78373,64.9168L19.4973,64.8994L20.22037,64.8877L20.93393,64.8762L21.657,64.8703L22.37057,64.86449999999999L23.084130000000002,64.86449999999999L23.797710000000002,64.8702L24.52077,64.8819L25.224899999999998,64.8931L25.9384,64.9161L26.652,64.94489999999999L27.3751,64.97999999999999L28.0887,65.0145L28.802300000000002,65.0549L29.5443,65.1027L30.2579,65.1372L30.9999,65.1791L31.7324,65.20859999999999L32.465,65.23230000000001L33.2023,65.2501L33.9538,65.2501L34.7101,65.2316L35.4473,65.2019L36.1987,65.1533L36.9499,65.0865L37.7055,65.0009L38.4424,64.90559999999999L39.1793,64.79249999999999L39.9206,64.6785L40.6254,64.55879999999999L41.3393,64.4491L42.0439,64.34649999999999L42.743700000000004,64.256L43.4246,64.19550000000001L44.0957,64.1576L44.752300000000005,64.1576L45.4046,64.1945L46.053399999999996,64.2731L46.7,64.39330000000001L47.3539,64.5623L48.0193,64.77199999999999L48.6916,65.0219L49.3698,65.3066L50.0785,65.6214L50.8087,65.9577L51.55,66.2932L52.3183,66.6098L53.1177,66.894L53.953,67.11L54.8187,67.2359L55.7211,67.2432L56.639,67.09479999999999L57.5459,66.78710000000001L58.4201,66.3209L59.2588,65.7245L60.0675,64.9992L60.8457,64.1754L61.6027,63.2824L62.3475,62.3373L63.064,61.4052L63.7718,60.5015L64.4476,59.7098L65.07679999999999,59.0844L65.61449999999999,58.6847L65.9915,58.5293L66.2284,58.5274L66.5318,58.6647L67.0175,59.1317L67.6274,60.0435L68.2946,61.3912L68.98830000000001,63.1514L69.69550000000001,65.25999999999999L70.4067,67.63839999999999L71.1279,70.2313L71.8527,72.9019L72.5793,75.5204L73.3144,77.95570000000001L74.0672,80.0726L74.8846,81.7898L76.0483,83.1344L77.8831,83.1937L79.0858,81.6486L79.8964,79.4478L80.6439,76.2949L81.3765,72.0981L82.1054,66.87180000000001L82.8302,60.7571L83.554,53.8957L84.2774,46.5487L85.0002,39.0145L85.7222,31.6627L86.4428,24.90707L87.1658,19.146575L87.1659,19.146332Z" fill-rule="evenodd" stroke="currentColor" stroke-width="3" fill-opacity="1"/></g></g></svg>