<svg xmlns="http://www.w3.org/2000/svg" xmlns:xlink="http://www.w3.org/1999/xlink" fill="none" version="1.1" width="100" height="100.00000762939453" viewBox="0 0 100 100.00000762939453"><defs><clipPath id="master_svg0_8_392"><rect x="0" y="0" width="100" height="100.00000762939453" rx="0"/></clipPath></defs><g clip-path="url(#master_svg0_8_392)"><g><path d="M85.2957,26.906489999999998L86.0188,26.89492L85.9812,24.54522L85.2581,24.55679L84.5445,24.56246L83.812,24.57414L83.0984,24.579810000000002L82.3753,24.58559L81.6616,24.58556L80.948,24.579810000000002L80.2343,24.56835L79.5206,24.55119L78.8163,24.52287L78.1027,24.48858L77.38900000000001,24.44858L76.67519999999999,24.40287L75.9522,24.35661L75.20570000000001,24.31477L74.46860000000001,24.29119L73.7033,24.27879L72.9333,24.29727L72.1543,24.34712L71.3714,24.44105L70.5898,24.57233L69.8142,24.74605L69.0529,24.947020000000002L68.31309999999999,25.16596L67.60669999999999,25.37502L66.9307,25.55347L66.30109999999999,25.68441L65.7356,25.73869L65.21600000000001,25.70545L64.71940000000001,25.578319999999998L64.2017,25.32159L63.6322,24.89791L63.0088,24.274630000000002L62.3446,23.47239L61.6433,22.507550000000002L60.9201,21.47759L60.1481,20.452487L59.27,19.511279L58.0778,18.79607L56.5542,18.93012L55.3863,20.0792229L54.5353,21.8286L53.7721,24.30119L53.0334,27.586109999999998L52.3035,31.6263L51.5784,36.2494L50.8538,41.146699999999996L50.1341,45.8437L49.4141,49.789L48.688,53.7673L47.9624,58.5034L47.2385,63.3966L46.5191,67.98259999999999L45.802800000000005,71.947L45.0953,75.0935L44.4125,77.3058L43.8173,78.5292L43.5728,78.7698L43.3626,78.6437L42.7946,78.0349L42.1205,77.13980000000001L41.408699999999996,76.1263L40.6528,75.0921L39.8722,74.143L39.048100000000005,73.319L38.1715,72.6669L37.242999999999995,72.2064L36.2936,71.96340000000001L35.367000000000004,71.9041L34.4863,71.98859999999999L33.669799999999995,72.1584L32.8998,72.3617L32.16,72.58070000000001L31.4536,72.78970000000001L30.768900000000002,72.9704L30.098300000000002,73.1206L29.433799999999998,73.23230000000001L28.7705,73.31190000000001L28.1035,73.3545L27.427300000000002,73.3708L26.7277,73.3596L26.0375,73.3373L25.3285,73.2976L24.61479,73.2519L23.891730000000003,73.20570000000001L23.15932,73.16460000000001L22.42689,73.1294L21.69447,73.1001L20.95263,73.0821L20.22017,73.0704L19.48772,73.06450000000001L18.75526,73.06450000000001L18.0228,73.0703L17.29973,73.0761L16.56728,73.0877L15.853612,73.0934L15.0820973,73.1057L14.9032204,73.12049999999999L15.0967796,75.4625L15.197841,75.4542L15.872407,75.4433L16.60486,75.4374L17.31854,75.426L18.04159,75.4202L18.75526,75.4145L19.46892,75.4144L20.18259,75.42009999999999L20.896259999999998,75.4315L21.60054,75.4482L22.31425,75.4767L23.02794,75.51089999999999L23.74165,75.5509L24.46472,75.5971L25.1971,75.644L25.9342,75.68520000000001L26.6901,75.7093L27.436700000000002,75.72120000000001L28.206699999999998,75.7027L28.9857,75.6529L29.7686,75.559L30.5501,75.4277L31.3258,75.25399999999999L32.0871,75.053L32.826899999999995,74.834L33.5332,74.625L34.2093,74.4465L34.838899999999995,74.3156L35.404399999999995,74.2613L35.9239,74.2946L36.4206,74.4217L36.9383,74.67840000000001L37.5078,75.10210000000001L38.1298,75.72399999999999L38.7954,76.5332L39.485600000000005,77.4769L40.219899999999996,78.5224L40.9919,79.5475L41.870000000000005,80.4887L43.062200000000004,81.2039L44.5857,81.06989999999999L45.753699999999995,79.9208L46.6047,78.1714L47.3679,75.6988L48.1065,72.4139L48.8365,68.37360000000001L49.5632,63.7405L50.2853,58.8593L51.0059,54.1562L51.7259,50.211L52.452,46.2327L53.1785,41.490700000000004L53.9,36.6135L54.6209,32.0174L55.3371,28.05301L56.0447,24.90645L56.7275,22.69425L57.3227,21.47081L57.5672,21.23021L57.7773,21.356279999999998L58.3454,21.9651L59.0195,22.86026L59.7424,23.88922L60.4872,24.91397L61.2691,25.85838L62.0919,26.68104L62.9685,27.33312L63.8969,27.79357L64.8464,28.0366L65.773,28.09589L66.6536,28.01137L67.4702,27.841549999999998L68.2402,27.638289999999998L68.97999999999999,27.41935L69.68639999999999,27.21029L70.3711,27.02954L71.0416,26.87937L71.7062,26.76774L72.3694,26.68816L73.03649999999999,26.64547L73.7128,26.62924L74.3935,26.63999L75.10249999999999,26.66267L75.8021,26.701810000000002L76.5252,26.74808L77.2576,26.79491L77.99000000000001,26.83588L78.7224,26.871000000000002L79.4643,26.90051L80.1967,26.91805L80.9292,26.92973L81.6616,26.93555L82.3941,26.93552L83.1172,26.92973L83.8496,26.92384L84.5633,26.91238L85.2957,26.906489999999998Z" fill-rule="evenodd" stroke="currentColor" stroke-width="3" fill-opacity="1"/></g></g></svg>