<svg xmlns="http://www.w3.org/2000/svg" xmlns:xlink="http://www.w3.org/1999/xlink" fill="none" version="1.1" width="100" height="100.00000762939453" viewBox="0 0 100 100.00000762939453"><defs><clipPath id="master_svg0_8_277"><rect x="0" y="0" width="100" height="100.00000762939453" rx="0"/></clipPath></defs><g clip-path="url(#master_svg0_8_277)"><g><path d="M85.2958,36.302099999999996L86.0189,36.2905Q86.076,36.2896,86.1328,36.283100000000005Q86.1895,36.276700000000005,86.2454,36.264700000000005Q86.3013,36.2528,86.3557,36.2355Q86.4102,36.218199999999996,86.4627,36.1957Q86.5152,36.1732,86.5653,36.145700000000005Q86.6154,36.1182,86.6626,36.086Q86.7098,36.053799999999995,86.7536,36.0172Q86.7974,35.9805,86.8375,35.939800000000005Q86.8776,35.899100000000004,86.9135,35.8547Q86.9494,35.810199999999995,86.9809,35.7625Q87.0123,35.7148,87.039,35.6643Q87.0657,35.6138,87.0873,35.560900000000004Q87.109,35.5081,87.1254,35.4533Q87.1418,35.3986,87.1529,35.342600000000004Q87.1639,35.286500000000004,87.1695,35.229600000000005Q87.175,35.172799999999995,87.175,35.115700000000004Q87.175,35.057900000000004,87.1693,35.0005Q87.1637,34.943,87.1524,34.886399999999995Q87.1412,34.8298,87.1244,34.7746Q87.1076,34.719300000000004,87.0855,34.666Q87.0635,34.612700000000004,87.0362,34.561800000000005Q87.009,34.5109,86.977,34.462900000000005Q86.9449,34.4149,86.9083,34.3702Q86.8717,34.3256,86.8308,34.284800000000004Q86.79,34.244,86.7454,34.2074Q86.7008,34.1707,86.6528,34.1387Q86.6048,34.1066,86.5539,34.0794Q86.503,34.0522,86.4496,34.030100000000004Q86.3963,34.007999999999996,86.3411,33.991299999999995Q86.2859,33.9745,86.2292,33.9632Q86.1726,33.952,86.1152,33.9463Q86.0577,33.9407,86,33.9407Q85.9905,33.9407,85.9811,33.940799999999996L83.8119,33.9757L83.0794,33.9934L82.3658,34.0048L81.6333,34.022400000000005L80.9197,34.0339L80.1966,34.045500000000004L79.483,34.0512L78.7599,34.057L78.0463,34.057L77.3327,34.0512L76.6191,34.039699999999996L75.896,34.028099999999995L75.1919,34.0053L74.47829999999999,33.9765L73.7646,33.942L73.0416,33.9071L72.3279,33.8669L71.6143,33.8209L70.8724,33.785L70.15870000000001,33.7447L69.4168,33.7147L68.68430000000001,33.6911L67.9376,33.673100000000005L67.1862,33.673100000000005L66.449,33.690799999999996L65.69290000000001,33.7211L64.9417,33.7695L64.1906,33.835899999999995L63.4536,33.919L62.6982,34.016L61.9614,34.128699999999995L61.2384,34.2392L60.4971,34.3643L59.7922,34.471900000000005L59.0783,34.5753L58.3969,34.662800000000004L57.7158,34.7231L57.0445,34.7609L56.3876,34.7609L55.7349,34.724199999999996L55.0858,34.6458L54.439,34.5261L53.7848,34.3577L53.1193,34.1489L52.4469,33.9L51.7466,33.607L51.0455,33.2965L50.3367,32.9714L49.5884,32.6342L48.8201,32.3189L48.021,32.036L47.186,31.8211L46.321,31.6958L45.4193,31.688499999999998L44.5021,31.836100000000002L43.5993,32.1412L42.7221,32.6L41.8808,33.2024L41.0743,33.9226L40.296,34.7429L39.5389,35.6323L38.802800000000005,36.5621L38.0709,37.510000000000005L37.3698,38.4012L36.6941,39.1894L36.0651,39.8119L35.5273,40.21L35.1495,40.364999999999995L34.9106,40.3669L34.606300000000005,40.2299L34.1209,39.765100000000004L33.5115,38.858000000000004L32.8446,37.5167L32.1511,35.7646L31.444,33.665400000000005L30.726599999999998,31.2757L30.0098,28.7087L29.2887,26.06298L28.560299999999998,23.44918L27.8251,21.02394L27.0721,18.91553L26.2542,17.204632L25.0901,15.86538L23.258319999999998,15.80642L22.05514,17.345597L21.243949999999998,19.53851L20.49626,22.67864L19.76361,26.85796L19.03775,32.038L18.31156,38.1356L17.5868,44.9747L16.8629,52.2954L16.13955,59.8029L15.416747,67.1303L14.694697,73.86869999999999L13.96736,79.637L13.82563,83.9615Q13.825,83.9808,13.825,84Q13.825,84.0577,13.83066,84.1152Q13.83632,84.1726,13.84758,84.2292Q13.85884,84.2858,13.8756,84.3411Q13.89235,84.3963,13.914439999999999,84.4496Q13.93653,84.503,13.96374,84.5539Q13.99095,84.6048,14.023023,84.6528Q14.055093,84.7008,14.091713,84.7454Q14.128332,84.79,14.16915,84.8308Q14.209967,84.8717,14.254588,84.9083Q14.299209,84.9449,14.347205,84.977Q14.395201,85.009,14.446109,85.0362Q14.497017,85.0635,14.550347,85.0855Q14.603677,85.1077,14.658916,85.1244Q14.714154,85.1412,14.770769,85.1524Q14.827384,85.1637,14.884830000000001,85.1693Q14.942276,85.175,15,85.175Q15.0565182,85.175,15.112775,85.1696Q15.169033,85.1642,15.22451,85.1534Q15.279986,85.1426,15.334171,85.1265Q15.388355,85.1104,15.440746,85.0892Q15.493138,85.068,15.543252,85.0419Q15.593367,85.0158,15.640743,84.9849Q15.688118,84.9541,15.732317,84.9189Q15.776515,84.8837,15.817129,84.8444Q15.857743,84.8051,15.894396,84.762Q15.93105,84.719,15.963405,84.6727Q15.995761,84.6263,16.02352,84.5771Q16.05128,84.5279,16.07418,84.4762Q16.09709,84.4245,16.11493,84.3709Q16.13277,84.3173,16.14538,84.2622Q16.15799,84.2071,16.16525,84.151Q16.17252,84.095,16.17437,84.0385L16.31253,79.8229L17.03132,74.1191L17.7554,67.36099999999999L18.47872,60.0283L19.20149,52.5267L19.92372,45.222300000000004L20.64508,38.4135L21.365009999999998,32.3641L22.08528,27.224L22.79875,23.154130000000002L23.49719,20.2208L24.13212,18.50436L24.19754,18.42068L24.27145,18.50571L24.89968,19.8199L25.5928,21.760469999999998L26.3037,24.10557L27.0214,26.680970000000002L27.7464,29.3408L28.4758,31.9514L29.2045,34.3785L29.9435,36.5727L30.6961,38.4739L31.4754,40.041399999999996L32.3121,41.286699999999996L33.272800000000004,42.2065L34.414699999999996,42.721000000000004L35.6219,42.7113L36.690200000000004,42.272999999999996L37.5985,41.6006L38.4156,40.792L39.186099999999996,39.893100000000004L39.9311,38.946L40.6453,38.020700000000005L41.3554,37.1238L42.044399999999996,36.314499999999995L42.712199999999996,35.610600000000005L43.3518,35.0394L43.9567,34.606300000000005L44.5256,34.3087L45.0689,34.1252L45.5978,34.04L46.1423,34.044399999999996L46.723299999999995,34.1286L47.3345,34.2859L47.9815,34.515L48.6594,34.793099999999995L49.3571,35.1075L50.0945,35.445499999999996L50.8396,35.7749L51.5853,36.0869L52.3591,36.3733L53.1397,36.6182L53.9316,36.8221L54.7309,36.97L55.5279,37.066199999999995L56.3214,37.1109L57.1106,37.1109L57.8855,37.0673L58.6505,36.9996L59.4151,36.900999999999996L60.1474,36.7949L60.8886,36.6815L61.5935,36.562200000000004L62.3165,36.4517L63.026,36.343199999999996L63.7166,36.2542L64.4257,36.1743L65.1208,36.1128L65.81569999999999,36.0681L66.50569999999999,36.0402L67.21459999999999,36.0231L67.9093,36.0231L68.6087,36.0399L69.3224,36.062799999999996L70.0266,36.091L70.75909999999999,36.1322L71.4633,36.1661L72.19579999999999,36.2132L72.9282,36.254400000000004L73.65129999999999,36.2893L74.38380000000001,36.324600000000004L75.1163,36.354L75.8582,36.3778L76.5813,36.389399999999995L77.3138,36.4011L78.0463,36.407L78.77879999999999,36.407L79.5019,36.4011L80.2344,36.3952L80.9575,36.3836L81.69,36.3718L82.4036,36.3545L83.1361,36.3427L83.8497,36.3254L85.2958,36.302099999999996Z" fill-rule="evenodd" stroke="currentColor" stroke-width="3" fill-opacity="1"/></g></g></svg>