<svg xmlns="http://www.w3.org/2000/svg" xmlns:xlink="http://www.w3.org/1999/xlink" fill="none" version="1.1" width="100" height="100.00000762939453" viewBox="0 0 100 100.00000762939453"><defs><clipPath id="master_svg0_8_688"><rect x="0" y="0" width="100" height="100.00000762939453" rx="0"/></clipPath></defs><g clip-path="url(#master_svg0_8_688)"><g><path d="M86.3526,33.38935L86.3528,33.38926Q86.4417,33.36129,86.525,33.31967Q86.6084,33.27804,86.6841,33.22381Q86.7598,33.16958,86.8261,33.10409Q86.8923,33.0386,86.9474,32.963487Q87.0025,32.888378,87.0451,32.805525Q87.0877,32.722672,87.1167,32.634146Q87.1457,32.54562,87.1603,32.453632Q87.175,32.361645,87.175,32.268493Q87.175,32.210769,87.1693,32.153323Q87.1637,32.095877,87.1524,32.0392621Q87.1412,31.9826472,87.1244,31.9274087Q87.1076,31.87217,87.0855,31.81884Q87.0635,31.76551,87.0362,31.714602Q87.009,31.663694,86.977,31.615698Q86.9449,31.567702,86.9083,31.523081Q86.8717,31.47846,86.8308,31.437643Q86.79,31.396826,86.7454,31.360206Q86.7008,31.323586,86.6528,31.291516Q86.6048,31.259447,86.5539,31.232236Q86.503,31.205025,86.4496,31.182935Q86.3963,31.160845,86.3411,31.144088Q86.2859,31.127332,86.2292,31.116071Q86.1726,31.104809,86.1152,31.099151Q86.0577,31.093493,86,31.093493Q85.8194,31.093493,85.6472,31.147723L85.6469,31.147804999999998L84.9791,31.358032L84.3714,31.485582L83.7646,31.54926L83.1598,31.554143L82.558,31.495848L81.9509,31.373317L81.3315,31.183329L80.033,30.65923L78.7774,31.622103L78.0741,32.172701L77.4178,32.623033L76.77109999999999,32.998891L76.1348,33.3071L75.5124,33.54323L74.8998,33.71138L74.2899,33.81476L73.68430000000001,33.85876L73.084,33.83938L72.4761,33.75596L71.86619999999999,33.61319L71.2438,33.39712L70.6112,33.12138L69.9718,32.770391000000004L69.31880000000001,32.348724L68.6589,31.853293L67.1052,30.52385L65.52510000000001,32.233053L64.7436,33.58937L64.0373,34.74664L63.3344,35.82471L62.6337,36.82599L61.9364,37.75464L61.2445,38.60367L60.5579,39.37412L59.8756,40.06807L59.2,40.689769999999996L58.5345,41.23238L57.8755,41.70052L57.2261,42.0989L56.5904,42.422200000000004L55.9616,42.676L55.3422,42.866L54.735,42.9885L54.1333,43.0468L53.5284,43.0419L52.9216,42.978300000000004L52.3139,42.8507L51.6939,42.6555L51.0642,42.3963L50.4276,42.0674L49.7802,41.66496L49.1202,41.18551L48.4515,40.63492L47.7754,40.00729L47.0941,39.30876L46.4069,38.52657L45.713300000000004,37.66996L45.0158,36.73523L44.314800000000005,35.728L43.611599999999996,34.64384L42.9058,33.48157L41.776700000000005,31.503636L39.509,31.9246518L38.591,35.26674L37.8702,37.82121L37.1499,40.29216L36.4294,42.694L35.7094,45.0187L34.9894,47.2736L34.269999999999996,49.4512L33.5509,51.5523L32.8322,53.5767L32.113600000000005,55.5313L31.3959,57.4082L30.678800000000003,59.2083L29.9618,60.9386L29.2466,62.5834L28.5305,64.1671L27.8174,65.66329999999999L27.1039,67.0911L26.3992,68.4274L25.689700000000002,69.6988L24.98232,70.898L24.27791,72.01820000000001L23.576340000000002,73.06020000000001L22.877209999999998,74.0253L22.18179,74.9179L21.49081,75.7322L20.8067,76.4722L20.12905,77.1286L19.454810000000002,77.7165L18.79323,78.2291L18.1412,78.66069999999999L17.49669,79.0249L16.86221,79.3169L16.23775,79.5437L15.626402,79.7016L14.9077659,79.81190000000001L14.716074,79.8598L14.714775,79.8601Q14.620121,79.88380000000001,14.53067,79.9228Q14.44122,79.9618,14.359422,80.015Q14.277625,80.06819999999999,14.205722,80.13409999999999Q14.13382,80.20009999999999,14.073781,80.277Q14.013742,80.35390000000001,13.96721,80.4397Q13.92068,80.52539999999999,13.88893,80.6177Q13.85719,80.71000000000001,13.84109,80.80619999999999Q13.825,80.9024,13.825,81Q13.825,81.0577,13.83066,81.1152Q13.83632,81.1726,13.84758,81.22919999999999Q13.85884,81.2858,13.8756,81.3411Q13.89235,81.3963,13.914439999999999,81.4496Q13.93653,81.503,13.96374,81.5539Q13.99095,81.6048,14.023023,81.6528Q14.055093,81.7008,14.091713,81.74539999999999Q14.128332,81.78999999999999,14.16915,81.83080000000001Q14.209967,81.8717,14.254588,81.9083Q14.299209,81.94489999999999,14.347205,81.977Q14.395201,82.009,14.446109,82.0363Q14.497017,82.0635,14.550347,82.0856Q14.603677,82.10759999999999,14.658916,82.12440000000001Q14.714154,82.1412,14.770769,82.1524Q14.827384,82.1637,14.884830000000001,82.16929999999999Q14.942276,82.175,15,82.175Q15.144778,82.175,15.285225,82.1399L15.286536,82.1395L15.37211,82.1181L16.09961,82.0065L16.93439,81.7909L17.75606,81.4924L18.567709999999998,81.119L19.369320000000002,80.666L20.163420000000002,80.1404L20.94794,79.5324L21.71983,78.8595L22.4883,78.1151L23.250329999999998,77.29079999999999L24.00544,76.4008L24.75619,75.43719999999999L25.5031,74.4062L26.247700000000002,73.30019999999999L26.9894,72.1207L27.728099999999998,70.8685L28.4649,69.54820000000001L29.206200000000003,68.1413L29.9389,66.67410000000001L30.671799999999998,65.1352L31.4018,63.5202L32.1328,61.8381L32.861999999999995,60.0779L33.590900000000005,58.2475L34.3193,56.3422L35.0469,54.3628L35.7743,52.3131L36.501400000000004,50.1883L37.2281,47.9883L37.9542,45.7139L38.6803,43.3691L39.406,40.94977L40.1318,38.45943L40.8571,35.88918L41.0942,35.02587L41.620999999999995,35.89338L42.364000000000004,37.0389L43.1091,38.10955L43.8577,39.11265L44.6102,40.0421L45.3691,40.905860000000004L46.1339,41.68991L46.9039,42.4047L47.6814,43.0449L48.4676,43.616L49.2662,44.1125L50.0758,44.530699999999996L50.8922,44.8668L51.7183,45.1269L52.5567,45.3029L53.396,45.3909L54.2373,45.3977L55.0817,45.3159L55.9206,45.1466L56.7474,44.893L57.5647,44.5632L58.3751,44.150999999999996L59.1718,43.6622L59.959,43.103L60.7395,42.4666L61.5101,41.75752L62.2739,40.98062L63.0334,40.128460000000004L63.7876,39.20304L64.53649999999999,38.20558L65.28190000000001,37.14059L66.02510000000001,36.00072L66.765,34.78824L67.33539999999999,33.79824L67.9743,34.27785L68.76740000000001,34.79006L69.5741,35.23288L70.3877,35.58751L71.2113,35.87341L72.0476,36.06918L72.8858,36.18421L73.7316,36.21152L74.5721,36.15046L75.4084,36.00869L76.2418,35.779939999999996L77.0656,35.4674L77.8754,35.07521L78.6748,34.61056L79.4646,34.06861L80.2075,33.48689L80.398,33.34076L80.5457,33.40035L81.3724,33.65396L82.2114,33.82327L83.0557,33.90506L83.897,33.89827L84.7364,33.81019L85.5748,33.63422L86.3526,33.38935Z" fill-rule="evenodd" stroke="currentColor" stroke-width="3" fill-opacity="1"/></g></g></svg>