<svg xmlns="http://www.w3.org/2000/svg" xmlns:xlink="http://www.w3.org/1999/xlink" fill="none" version="1.1" width="100" height="100.00000762939453" viewBox="0 0 100 100.00000762939453"><defs><clipPath id="master_svg0_8_527"><rect x="0" y="0" width="100" height="100.00000762939453" rx="0"/></clipPath></defs><g clip-path="url(#master_svg0_8_527)"><g><path d="M86.1817,26.16087Q86.2847,26.14475,86.3832,26.11076Q86.4817,26.07677,86.5727,26.02596Q86.6637,25.975162,86.7444,25.909133Q86.825,25.843105,86.8928,25.763913Q86.9605,25.684721,87.0133,25.594838Q87.0661,25.504955,87.1022,25.407188Q87.1383,25.309421,87.1567,25.206823Q87.175,25.104225,87.175,25Q87.175,24.942276,87.1693,24.88483Q87.1637,24.827384,87.1524,24.770769Q87.1412,24.714154,87.1244,24.658916Q87.1076,24.603677,87.0855,24.550347Q87.0635,24.497017,87.0362,24.446109Q87.009,24.395201,86.977,24.347205Q86.9449,24.299209,86.9083,24.254588Q86.8717,24.209967,86.8308,24.16915Q86.79,24.128332,86.7454,24.091713Q86.7008,24.055093,86.6528,24.023023Q86.6048,23.99095,86.5539,23.96374Q86.503,23.93653,86.4496,23.91444Q86.3963,23.89235,86.3411,23.8756Q86.2859,23.85884,86.2292,23.84758Q86.1726,23.83632,86.1152,23.83066Q86.0577,23.825,86,23.825Q85.9086,23.825,85.8183,23.83913L85.8176,23.83924L85.0357,23.96163L84.1991,24.182181L83.3761,24.487269L82.5636,24.868794L81.7616,25.331303L80.9674,25.8678L80.183,26.48812L79.4114,27.17461L78.6434,27.93387L77.8818,28.774540000000002L77.1272,29.68216L76.3769,30.6649L75.6305,31.71648L74.8863,32.84442L74.1451,34.04742L73.4068,35.3247L72.6704,36.6715L71.941,38.083600000000004L71.2065,39.5835L70.47409999999999,41.151700000000005L69.7414,42.805L69.0116,44.518100000000004L68.2809,46.3176L67.55199999999999,48.1849L66.8232,50.1298L66.0949,52.1512L65.3675,54.2423L64.6402,56.411L63.9133,58.6565L63.1868,60.9787L62.4607,63.371L61.7347,65.8409L61.0092,68.3811L60.2834,71.00569999999999L60.0446,71.8928L59.5246,71.0188L58.7821,69.8505L58.0374,68.7585L57.2893,67.7355L56.5373,66.7876L55.7789,65.9067L55.0146,65.107L54.245,64.3779L53.4677,63.7248L52.6816,63.142L51.8827,62.6352L51.0725,62.208L50.255,61.8646L49.4274,61.5987L48.5869,61.4186L47.7453,61.3285L46.9016,61.3216L46.0548,61.4053L45.2138,61.5785L44.3855,61.8378L43.567099999999996,62.1749L42.756,62.5958L41.959,63.0948L41.1719,63.6655L40.3915,64.3147L39.621300000000005,65.0381L38.8579,65.8305L38.099000000000004,66.6995L37.3453,67.64330000000001L36.596900000000005,68.6606L35.852000000000004,69.74680000000001L35.1092,70.9093L34.3697,72.146L33.8017,73.15209999999999L33.1749,72.6719L32.3816,72.149L31.5743,71.6968L30.759900000000002,71.33449999999999L29.9348,71.04220000000001L29.096600000000002,70.842L28.2562,70.7243L27.4078,70.69630000000001L26.564999999999998,70.75880000000001L25.726599999999998,70.9039L24.891370000000002,71.1378L24.06635,71.4572L23.25583,71.8579L22.45602,72.3323L21.66612,72.8854L20.914,73.4864L20.73924,73.6232L20.60141,73.5664L19.77308,73.30709999999999L18.93205,73.1339L18.08531,73.05019999999999L17.24157,73.05709999999999L16.39996,73.1472L15.559498,73.32730000000001L14.288831,73.7355L13.9328,74.5084Q13.825,74.7424,13.825,75Q13.825,75.0577,13.83066,75.1152Q13.83632,75.1726,13.84758,75.22919999999999Q13.85884,75.2858,13.8756,75.3411Q13.89235,75.3963,13.914439999999999,75.4496Q13.93653,75.503,13.96374,75.5539Q13.99095,75.6048,14.023023,75.6528Q14.055093,75.7008,14.091713,75.74539999999999Q14.128332,75.78999999999999,14.16915,75.8309Q14.209967,75.8717,14.254588,75.9083Q14.299209,75.94489999999999,14.347205,75.977Q14.395201,76.009,14.446109,76.0363Q14.497017,76.0635,14.550347,76.0856Q14.603677,76.10759999999999,14.658916,76.12440000000001Q14.714154,76.1412,14.770769,76.1524Q14.827384,76.1637,14.884830000000001,76.16929999999999Q14.942276,76.175,15,76.175Q15.143231,76.175,15.282268,76.1406Q15.421304,76.1062,15.548004,76.0394Q15.674703000000001,75.9726,15.781645,75.87729999999999Q15.888587,75.782,15.969507,75.66380000000001L16.16651,75.6005L16.77219,75.4708L17.37669,75.40610000000001L17.97909,75.4011L18.57848,75.46039999999999L19.18356,75.58500000000001L19.80134,75.7784L21.10969,76.3173L22.38101,75.3223L23.075020000000002,74.76769999999999L23.73122,74.3082L24.37754,73.9248L25.0131,73.61070000000001L25.6343,73.3702L26.2451,73.1991L26.852899999999998,73.09389999999999L27.456200000000003,73.0492L28.054000000000002,73.0689L28.659599999999998,73.1537L29.2676,73.299L29.8886,73.519L30.5203,73.8L31.1592,74.1579L31.812,74.5881L32.472,75.0938L34.035799999999995,76.4593L35.6214,74.7089L36.401700000000005,73.3269L37.1083,72.14529999999999L37.8117,71.04429999999999L38.5129,70.0218L39.2106,69.07339999999999L39.903,68.2064L40.590199999999996,67.4195L41.2729,66.7108L41.9488,66.0761L42.6147,65.5221L43.2736,65.04429999999999L43.922799999999995,64.6379L44.5578,64.3084L45.185500000000005,64.0498L45.8033,63.8564L46.4084,63.7318L47.0078,63.6725L47.6102,63.6775L48.2147,63.7422L48.8204,63.8719L49.4389,64.0707L50.0675,64.3348L50.7034,64.67L51.3506,65.0806L52.0107,65.57L52.6795,66.132L53.356,66.77289999999999L54.0379,67.4862L54.7256,68.2851L55.4196,69.1599L56.1177,70.11449999999999L56.8191,71.1431L57.5227,72.2501L58.2289,73.43690000000001L59.3573,75.4542L61.6359,75.02250000000001L62.5484,71.632L63.2688,69.0265L63.9893,66.5036L64.70949999999999,64.05340000000001L65.4296,61.6804L66.1491,59.3802L66.8683,57.1582L67.58709999999999,55.0143L68.30590000000001,52.9476L69.0238,50.9543L69.7411,49.0393L70.45830000000001,47.2016L71.1737,45.439L71.89,43.7568L72.6035,42.1459L73.3172,40.6166L74.0289,39.1621L74.74549999999999,37.7746L75.4553,36.4765L76.1631,35.2521L76.86789999999999,34.10821L77.57,33.04403L78.2696,32.05845L78.9654,31.14703L79.6569,30.31536L80.3415,29.55961L81.0197,28.88919L81.6941,28.28912L82.3559,27.76575L83.0078,27.32536L83.6519,26.95393L84.2856,26.6564L84.9087,26.4254L85.5182,26.26472L86.181,26.16097L86.1817,26.16087L86.1817,26.16087Z" fill-rule="evenodd" stroke="currentColor" stroke-width="3" fill-opacity="1"/></g></g></svg>